<?xml version="1.0" encoding="utf-8"?>
<!-- Generator: Adobe Illustrator 19.0.0, SVG Export Plug-In . SVG Version: 6.00 Build 0)  -->
<svg version="1.1" id="svg5" xmlns="http://www.w3.org/2000/svg" xmlns:xlink="http://www.w3.org/1999/xlink" x="0px" y="0px"
	 viewBox="496 -368 1024 768" enable-background="new 496 -368 1024 768" xml:space="preserve">
<rect x="-5911" y="-4990.1" fill="#E74C3C" stroke="#E74C3C" stroke-miterlimit="10" width="14063" height="10085.2"/>
<g id="scene">
	<g id="desks">
		<g id="deskleft">
			<g>
				<path fill="#982E21" d="M477.1,316.3c0,30.7-25.1,55.8-55.8,55.8h-863.8c-30.7,0-57.4-26.7-57.4-57.4v-473
					c0-30.7,25.1-55.8,55.8-55.8h865.3c30.7,0,55.8,25.1,55.8,55.8V316.3z"/>
				<path fill="#BE3D2F" d="M481,312.4c0,30.7-25.1,55.8-55.8,55.8h-865.3c-30.7,0-55.8-25.1-55.8-55.8v-474.5
					c0-30.7,25.1-55.8,55.8-55.8h865.3c30.7,0,55.8,25.1,55.8,55.8V312.4z"/>
			</g>
			<g>
				<path fill="#9E3023" d="M296.1-109.5L-7.1-175.2c0,0-7.3-1.6-8.8,5.7c-1.6,7.3,5.7,8.8,5.7,8.8l21.8,4.7c0,0-7.3-1.6-8.8,5.7
					C1.2-143-29.9,0.5-29.9,0.5c-1.6,7.6,4,15.2,11.5,16.9l245.9,53.3c7.6,1.6,15-3.2,16.7-10.7c0,0,24.9-115,31.3-144.3l0,0
					c0-0.1,0.2-1.1,1.4-6.4c1.6-7.3-5.7-8.8-5.7-8.8l21.8,4.7c0,0,7.3,1.6,8.8-5.7C303.3-107.9,296.1-109.5,296.1-109.5z"/>
				<g>
					<path fill="#DCE4E8" d="M250,59.5c-1.6,7.6-9.1,12.4-16.7,10.7L-12.6,16.9c-7.6-1.6-13.2-9.3-11.5-16.9
						c0,0,31.1-143.5,32.7-150.8c1.6-7.3,8.8-5.7,8.8-5.7L277-100.1c0,0,7.3,1.6,5.7,8.8C281.1-84,250,59.5,250,59.5z"/>
					<path fill="#F7F9F8" d="M298.8-95.4L-4.4-161.1c0,0-7.3-1.6-5.7-8.8c1.6-7.3,8.8-5.7,8.8-5.7l303.1,65.7c0,0,7.3,1.6,5.7,8.8
						C306-93.8,298.8-95.4,298.8-95.4z"/>
					<path opacity="0.3" fill="#B7BFC7" enable-background="new    " d="M281.3-84.8L-15.9-37.6c0,0,22.9-105.8,24.5-113.1
						c1.6-7.3,8.8-5.7,8.8-5.7L277-100.1c0,0,7.3,1.6,5.7,8.8C281.1-84,281.3-84.8,281.3-84.8z"/>
					
						<rect x="77.9" y="-6.2" transform="matrix(-0.9773 -0.2117 0.2117 -0.9773 227.1551 49.8791)" fill="#F7F9F8" width="76.7" height="37.9"/>
					<g id="keyboard2">
						
							<rect x="46.4" y="-121" transform="matrix(-0.9773 -0.2118 0.2118 -0.9773 130.9595 -218.0008)" fill="#F7F9F8" width="14.8" height="9.9"/>
						
							<rect x="42.6" y="-105.7" transform="matrix(-0.9773 -0.2117 0.2117 -0.9773 119.8809 -184.4895)" fill="#F7F9F8" width="14.8" height="14"/>
						
							<rect x="38.1" y="-85.3" transform="matrix(-0.9773 -0.2118 0.2118 -0.9773 116.2887 -142.4859)" fill="#F7F9F8" width="24.7" height="15.7"/>
						
							<rect x="33.8" y="-64" transform="matrix(-0.9773 -0.2119 0.2119 -0.9773 113.9697 -101.8525)" fill="#F7F9F8" width="35.5" height="14"/>
						
							<rect x="62" y="-101.4" transform="matrix(-0.9773 -0.2118 0.2118 -0.9773 158.0007 -171.887)" fill="#F7F9F8" width="15.7" height="14"/>
						
							<rect x="67.3" y="-80" transform="matrix(-0.9773 -0.2118 0.2118 -0.9773 163.7843 -126.7833)" fill="#F7F9F8" width="15.7" height="15.7"/>
						
							<rect x="73.5" y="-57.6" transform="matrix(-0.9773 -0.2118 0.2118 -0.9773 171.6101 -82.7327)" fill="#F7F9F8" width="15.7" height="14"/>
						
							<rect x="92.9" y="-53.4" transform="matrix(-0.9773 -0.2118 0.2118 -0.9773 208.2171 -70.5601)" fill="#F7F9F8" width="14.8" height="14"/>
						
							<rect x="113.1" y="-49.1" transform="matrix(-0.9773 -0.2118 0.2118 -0.9773 247.1448 -57.6669)" fill="#F7F9F8" width="14.8" height="14"/>
						
							<rect x="132.5" y="-44.8" transform="matrix(-0.9773 -0.2117 0.2117 -0.9773 284.6044 -45.1541)" fill="#F7F9F8" width="14.8" height="14"/>
						
							<rect x="152.6" y="-40.5" transform="matrix(-0.9773 -0.2118 0.2118 -0.9773 323.4627 -32.3368)" fill="#F7F9F8" width="14.8" height="14"/>
						
							<rect x="171.1" y="-36.4" transform="matrix(-0.9773 -0.2117 0.2117 -0.9773 360.0728 -20.2315)" fill="#F7F9F8" width="15.7" height="14"/>
						
							<rect x="191" y="-29.9" transform="matrix(-0.9773 -0.2118 0.2118 -0.9773 417.6397 -1.1327)" fill="#F7F9F8" width="35.5" height="14"/>
						
							<rect x="87.4" y="-75.7" transform="matrix(-0.9773 -0.2118 0.2118 -0.9773 201.9484 -114.0957)" fill="#F7F9F8" width="14.8" height="15.7"/>
						
							<rect x="106.8" y="-71.4" transform="matrix(-0.9773 -0.2117 0.2117 -0.9773 240.1373 -101.3926)" fill="#F7F9F8" width="15.7" height="15.7"/>
						
							<rect x="127" y="-67.1" transform="matrix(-0.9773 -0.2117 0.2117 -0.9773 278.2854 -88.7481)" fill="#F7F9F8" width="14.8" height="15.7"/>
						
							<rect x="146.3" y="-62.9" transform="matrix(-0.9773 -0.2119 0.2119 -0.9773 316.3459 -76.1859)" fill="#F7F9F8" width="15.7" height="15.7"/>
						
							<rect x="166.5" y="-58.6" transform="matrix(-0.9773 -0.2118 0.2118 -0.9773 354.5521 -63.4782)" fill="#F7F9F8" width="14.8" height="15.7"/>
						<polygon fill="#F7F9F8" points="197.5,-37.1 184.3,-40.4 187.6,-55.8 200.8,-52.4 						"/>
						<polygon fill="#F7F9F8" points="226.5,-30.8 204.5,-36.1 207.8,-51.4 229.9,-46.2 						"/>
						
							<rect x="82.1" y="-97.1" transform="matrix(-0.9773 -0.2118 0.2118 -0.9773 196.9207 -158.9975)" fill="#F7F9F8" width="15.7" height="14"/>
						
							<rect x="101.5" y="-92.9" transform="matrix(-0.9773 -0.2117 0.2117 -0.9773 233.5554 -146.8136)" fill="#F7F9F8" width="14.8" height="14"/>
						
							<rect x="121.6" y="-88.6" transform="matrix(-0.9773 -0.2118 0.2118 -0.9773 272.459 -133.907)" fill="#F7F9F8" width="14.8" height="14"/>
						
							<rect x="141" y="-84.4" transform="matrix(-0.9773 -0.2117 0.2117 -0.9773 309.8701 -121.5048)" fill="#F7F9F8" width="14.8" height="14"/>
						
							<rect x="161.1" y="-80" transform="matrix(-0.9773 -0.2118 0.2118 -0.9773 348.7414 -108.6488)" fill="#F7F9F8" width="14.8" height="14"/>
						
							<rect x="179.7" y="-75.9" transform="matrix(-0.9773 -0.2118 0.2118 -0.9773 385.3354 -96.5227)" fill="#F7F9F8" width="15.7" height="14"/>
						
							<rect x="199.6" y="-69.4" transform="matrix(-0.9773 -0.2117 0.2117 -0.9773 443.0012 -77.3977)" fill="#F7F9F8" width="35.5" height="14"/>
						
							<rect x="29.9" y="-47.6" transform="matrix(-0.9773 -0.2117 0.2117 -0.9773 82.2178 -70.8096)" fill="#F7F9F8" width="14.8" height="15.7"/>
						
							<rect x="49.2" y="-43.4" transform="matrix(-0.9773 -0.2118 0.2118 -0.9773 120.2958 -58.2639)" fill="#F7F9F8" width="15.7" height="15.7"/>
						
							<rect x="68.5" y="-30.6" transform="matrix(-0.9773 -0.2118 0.2118 -0.9773 234.7533 -20.2882)" fill="#F7F9F8" width="95.7" height="15.7"/>
						
							<rect x="166.9" y="-17.9" transform="matrix(-0.9773 -0.2118 0.2118 -0.9773 347.6496 17.1372)" fill="#F7F9F8" width="15.7" height="15.7"/>
						<polygon fill="#F7F9F8" points="200.9,3.6 183.5,0.3 186.8,-15 204.2,-11.7 						"/>
						
							<rect x="207.2" y="-9.2" transform="matrix(-0.9773 -0.2119 0.2119 -0.9773 424.7173 42.7433)" fill="#F7F9F8" width="14.8" height="15.7"/>
						
							<rect x="63.6" y="-116.7" transform="matrix(-0.9773 -0.2118 0.2118 -0.9773 164.9492 -205.7878)" fill="#F7F9F8" width="15.7" height="9.9"/>
						
							<rect x="83.8" y="-112.3" transform="matrix(-0.9773 -0.2119 0.2119 -0.9773 203.8623 -192.8775)" fill="#F7F9F8" width="15.7" height="9.9"/>
						
							<rect x="103.1" y="-108.2" transform="matrix(-0.9773 -0.2117 0.2117 -0.9773 240.486 -180.7437)" fill="#F7F9F8" width="14.8" height="9.9"/>
						
							<rect x="123.3" y="-103.9" transform="matrix(-0.9773 -0.2118 0.2118 -0.9773 279.3676 -167.935)" fill="#F7F9F8" width="14.8" height="9.9"/>
						
							<rect x="142.7" y="-99.6" transform="matrix(-0.9773 -0.2117 0.2117 -0.9773 316.8189 -155.3949)" fill="#F7F9F8" width="14.8" height="9.9"/>
						
							<rect x="162.8" y="-95.2" transform="matrix(-0.9773 -0.2117 0.2117 -0.9773 355.7382 -142.5073)" fill="#F7F9F8" width="14.8" height="9.9"/>
						
							<rect x="181.3" y="-91.2" transform="matrix(-0.9773 -0.2118 0.2118 -0.9773 392.2724 -130.4546)" fill="#F7F9F8" width="15.7" height="9.9"/>
						
							<rect x="201.5" y="-86.8" transform="matrix(-0.9773 -0.2118 0.2118 -0.9773 431.2051 -117.5357)" fill="#F7F9F8" width="15.7" height="9.9"/>
						
							<rect x="221.6" y="-82.5" transform="matrix(-0.9773 -0.2118 0.2118 -0.9773 469.3684 -104.8604)" fill="#F7F9F8" width="14.8" height="9.9"/>
					</g>
					
						<rect x="79.6" y="-128.3" transform="matrix(-0.9773 -0.2118 0.2118 -0.9773 315.8812 -215.3845)" fill="#DCE4E8" width="133.6" height="7.4"/>
				</g>
			</g>
			<g id="mouse04-1">
				<path fill="#9E3023" d="M370.8,56.4C370.8,56.4,370.8,56.4,370.8,56.4c-9.8-2.1-19.5,4.1-21.7,13.9c0,0,0,0.1,0,0.1l0,0.2
					l-7.2,33.4c0,0.1,0,0.3-0.1,0.4l-0.4,1.8h0c-2.1,9.9,4.2,19.4,14,21.5c9.8,2.1,19.6-4.2,21.7-13.9l7.7-35.6
					C386.9,68.2,380.6,58.5,370.8,56.4z"/>
				<g>
					<g>
						<path fill="#DCE4E8" d="M353.2,67.8c0,0,0,0.1,0,0.1l0,0.2l-7.2,33.4c0,0.1,0,0.2-0.1,0.3l-0.4,1.7h0
							c-2.1,10,4.2,19.5,14,21.6l15.4-71.1C365.1,51.8,355.4,58,353.2,67.8z"/>
						<path fill="#F7F9F8" d="M374.9,53.9C374.9,53.9,374.9,53.9,374.9,53.9L359.5,125c9.8,2.1,19.6-4.1,21.7-13.9l-0.1,0l0,0l0,0
							l0.1,0l7.7-35.5C391,65.7,384.8,56,374.9,53.9z"/>
					</g>
				</g>
			</g>
		</g>
		<g id="deskright">
			<g>
				<path fill="#982E21" d="M2520.7,326.3c0,30.7-25.1,55.8-55.8,55.8h-863.8c-30.7,0-57.4-26.7-57.4-57.4v-473
					c0-30.7,25.1-55.8,55.8-55.8h865.3c30.7,0,55.8,25.1,55.8,55.8L2520.7,326.3L2520.7,326.3z"/>
				<path fill="#BE3D2F" d="M2524.6,322.4c0,30.7-25.1,55.8-55.8,55.8h-865.3c-30.7,0-55.8-25.1-55.8-55.8v-474.5
					c0-30.7,25.1-55.8,55.8-55.8h865.3c30.7,0,55.8,25.1,55.8,55.8V322.4z"/>
			</g>
			<g>
				<path fill="#586273" d="M1997.8-183.8L1997.8-183.8C1997.9-183.7,1997.8-183.8,1997.8-183.8z"/>
				<path fill="#9E3023" d="M2040.8-171.8L1782.4-0.2c0,0-6.2,4.1-2.1,10.3c4.1,6.2,10.3,2.1,10.3,2.1l18.6-12.3
					c0,0-6.2,4.1-2.1,10.3c4.1,6.2,85.4,128.5,85.4,128.5c4.3,6.4,13.7,7.8,20.1,3.5L2122.2,2.9c6.5-4.3,8.2-13,3.9-19.4
					c0,0-65.1-98-81.7-123l0,0c-0.1-0.1-0.6-1-3.7-5.5c-4.1-6.2-10.3-2.1-10.3-2.1l18.6-12.3c0,0,6.2-4.1,2.1-10.3
					C2047-175.9,2040.8-171.8,2040.8-171.8z"/>
				<path fill="#DCE4E8" d="M2129.8-21c4.3,6.5,2.5,15.2-3.9,19.4l-209.6,139.2c-6.4,4.3-15.8,3-20.1-3.5c0,0-81.2-122.3-85.4-128.5
					s2.1-10.3,2.1-10.3l221.3-147c0,0,6.2-4.1,10.3,2.1C2048.6-143.3,2129.8-21,2129.8-21z"/>
				<path fill="#F7F9F8" d="M2052.7-163.9L1794.4,7.7c0,0-6.2,4.1-10.3-2.1c-4.1-6.2,2.1-10.3,2.1-10.3l258.4-171.6
					c0,0,6.2-4.1,10.3,2.1C2058.9-168,2052.7-163.9,2052.7-163.9z"/>
				<path opacity="0.3" fill="#B7BFC7" enable-background="new    " d="M2048.1-144l-173.3,246c0,0-59.9-90.2-64-96.3
					c-4.1-6.2,2.1-10.3,2.1-10.3l221.3-147c0,0,6.2-4.1,10.3,2.1C2048.6-143.3,2048.1-144,2048.1-144z"/>
				
					<rect x="1964.8" y="23.4" transform="matrix(-0.833 0.5533 -0.5533 -0.833 3695.1458 -1030.5942)" fill="#F7F9F8" width="76.7" height="37.9"/>
				<g id="keyboard3">
					
						<rect x="1858.3" y="-6.1" transform="matrix(-0.833 0.5533 -0.5533 -0.833 3419.2661 -1034.4646)" fill="#F7F9F8" width="14.9" height="9.9"/>
					
						<rect x="1868.2" y="6.7" transform="matrix(-0.833 0.5533 -0.5533 -0.833 3445.5706 -1012.6198)" fill="#F7F9F8" width="14.9" height="14"/>
					
						<rect x="1878.8" y="20.3" transform="matrix(-0.833 0.5533 -0.5533 -0.833 3482.0044 -994.7851)" fill="#F7F9F8" width="24.7" height="15.7"/>
					
						<rect x="1888.8" y="34.7" transform="matrix(-0.833 0.5533 -0.5533 -0.833 3517.8384 -978.4077)" fill="#F7F9F8" width="35.5" height="14"/>
					
						<rect x="1884.6" y="-4.6" transform="matrix(-0.833 0.5533 -0.5533 -0.833 3470.1479 -1042.5603)" fill="#F7F9F8" width="15.7" height="14"/>
					
						<rect x="1904.2" y="6.3" transform="matrix(-0.833 0.5533 -0.5533 -0.833 3512.6479 -1031.9867)" fill="#F7F9F8" width="15.7" height="15.7"/>
					
						<rect x="1924.1" y="17.8" transform="matrix(-0.833 0.5532 -0.5532 -0.833 3555.0427 -1023.2202)" fill="#F7F9F8" width="15.7" height="14"/>
					
						<rect x="1940.7" y="7" transform="matrix(-0.833 0.5533 -0.5533 -0.833 3578.6919 -1052.1219)" fill="#F7F9F8" width="14.8" height="14"/>
					
						<rect x="1957.9" y="-4.3" transform="matrix(-0.833 0.5533 -0.5533 -0.833 3603.9583 -1082.4233)" fill="#F7F9F8" width="14.8" height="14"/>
					
						<rect x="1974.4" y="-15.2" transform="matrix(-0.833 0.5533 -0.5533 -0.833 3628.1304 -1111.6285)" fill="#F7F9F8" width="14.8" height="14"/>
					
						<rect x="1991.5" y="-26.9" transform="matrix(-0.833 0.5533 -0.5533 -0.833 3653.0344 -1142.3983)" fill="#F7F9F8" width="14.9" height="14"/>
					
						<rect x="2007.3" y="-37.5" transform="matrix(-0.833 0.5533 -0.5533 -0.833 3676.864 -1170.7855)" fill="#F7F9F8" width="15.7" height="14"/>
					
						<rect x="2022.8" y="-54.4" transform="matrix(-0.833 0.5533 -0.5533 -0.833 3714.0981 -1215.837)" fill="#F7F9F8" width="35.5" height="14"/>
					
						<rect x="1921.5" y="-4.7" transform="matrix(-0.833 0.5533 -0.5533 -0.833 3537.4934 -1061.5682)" fill="#F7F9F8" width="14.8" height="15.7"/>
					
						<rect x="1938" y="-15.8" transform="matrix(-0.833 0.5533 -0.5533 -0.833 3562.3074 -1091.1868)" fill="#F7F9F8" width="15.7" height="15.7"/>
					
						<rect x="1955.2" y="-27.1" transform="matrix(-0.833 0.5533 -0.5533 -0.833 3586.8752 -1121.1444)" fill="#F7F9F8" width="14.9" height="15.7"/>
					
						<rect x="1971.6" y="-38.4" transform="matrix(-0.833 0.5533 -0.5533 -0.833 3611.3599 -1151.1976)" fill="#F7F9F8" width="15.7" height="15.7"/>
					
						<rect x="1988.8" y="-49.6" transform="matrix(-0.833 0.5533 -0.5533 -0.833 3635.9788 -1181.0822)" fill="#F7F9F8" width="14.8" height="15.7"/>
					
						<rect x="2005.2" y="-60.8" transform="matrix(-0.833 0.5533 -0.5533 -0.833 3660.636 -1210.9072)" fill="#F7F9F8" width="15.7" height="15.7"/>
					
						<rect x="2021.7" y="-74.6" transform="matrix(-0.833 0.5533 -0.5533 -0.833 3691.5474 -1247.7843)" fill="#F7F9F8" width="24.7" height="15.7"/>
					
						<rect x="1901.8" y="-15.9" transform="matrix(-0.833 0.5533 -0.5533 -0.833 3495.3928 -1072.8756)" fill="#F7F9F8" width="15.7" height="14"/>
					
						<rect x="1918.4" y="-26.4" transform="matrix(-0.833 0.5533 -0.5533 -0.833 3519.2942 -1101.1653)" fill="#F7F9F8" width="14.8" height="14"/>
					
						<rect x="1935.6" y="-37.9" transform="matrix(-0.833 0.5533 -0.5533 -0.833 3544.3801 -1131.6963)" fill="#F7F9F8" width="14.9" height="14"/>
					
						<rect x="1952" y="-49" transform="matrix(-0.833 0.5533 -0.5533 -0.833 3568.3789 -1161.1357)" fill="#F7F9F8" width="14.9" height="14"/>
					
						<rect x="1969.2" y="-60.3" transform="matrix(-0.833 0.5533 -0.5533 -0.833 3593.6794 -1191.3944)" fill="#F7F9F8" width="14.8" height="14"/>
					
						<rect x="1984.9" y="-71.1" transform="matrix(-0.833 0.5533 -0.5533 -0.833 3617.2366 -1220.1217)" fill="#F7F9F8" width="15.7" height="14"/>
					
						<rect x="2000.5" y="-88" transform="matrix(-0.833 0.5533 -0.5533 -0.833 3654.562 -1265.0658)" fill="#F7F9F8" width="35.5" height="14"/>
					
						<rect x="1901.5" y="56.1" transform="matrix(-0.833 0.5533 -0.5533 -0.833 3534.427 -939.0646)" fill="#F7F9F8" width="14.9" height="15.7"/>
					
						<rect x="1917.9" y="44.7" transform="matrix(-0.833 0.5533 -0.5533 -0.833 3558.9243 -969.1353)" fill="#F7F9F8" width="15.7" height="15.7"/>
					
						<rect x="1928.4" y="11.3" transform="matrix(-0.833 0.5533 -0.5533 -0.833 3633.0845 -1058.361)" fill="#F7F9F8" width="95.7" height="15.7"/>
					
						<rect x="2018.2" y="-21.8" transform="matrix(-0.833 0.5533 -0.5533 -0.833 3706.0254 -1146.6719)" fill="#F7F9F8" width="15.7" height="15.7"/>
					
						<rect x="2035.5" y="-33.1" transform="matrix(-0.833 0.5533 -0.5533 -0.833 3731.3689 -1176.8728)" fill="#F7F9F8" width="15.7" height="15.7"/>
					
						<rect x="2052.7" y="-44.4" transform="matrix(-0.833 0.5533 -0.5533 -0.833 3755.908 -1206.8531)" fill="#F7F9F8" width="14.8" height="15.7"/>
					
						<rect x="1874.8" y="-17.1" transform="matrix(-0.833 0.5533 -0.5533 -0.833 3444.2388 -1063.8679)" fill="#F7F9F8" width="15.7" height="9.9"/>
					
						<rect x="1891.9" y="-28.9" transform="matrix(-0.833 0.5533 -0.5533 -0.833 3468.8979 -1094.9662)" fill="#F7F9F8" width="15.7" height="9.9"/>
					
						<rect x="1908.5" y="-39.5" transform="matrix(-0.833 0.5533 -0.5533 -0.833 3492.738 -1123.3331)" fill="#F7F9F8" width="14.9" height="9.9"/>
					
						<rect x="1925.7" y="-50.7" transform="matrix(-0.833 0.5533 -0.5533 -0.833 3518.0718 -1153.5376)" fill="#F7F9F8" width="14.8" height="9.9"/>
					
						<rect x="1942.3" y="-61.6" transform="matrix(-0.833 0.5533 -0.5533 -0.833 3542.4373 -1182.4996)" fill="#F7F9F8" width="14.9" height="9.9"/>
					
						<rect x="1959.4" y="-73.1" transform="matrix(-0.833 0.5533 -0.5533 -0.833 3567.4211 -1213.1577)" fill="#F7F9F8" width="14.8" height="9.9"/>
					
						<rect x="1975.1" y="-83.8" transform="matrix(-0.833 0.5533 -0.5533 -0.833 3591.1726 -1241.6539)" fill="#F7F9F8" width="15.7" height="9.9"/>
					
						<rect x="1992.3" y="-95.3" transform="matrix(-0.833 0.5533 -0.5533 -0.833 3616.1523 -1272.3109)" fill="#F7F9F8" width="15.7" height="9.9"/>
					
						<rect x="2009.6" y="-106.4" transform="matrix(-0.833 0.5533 -0.5533 -0.833 3641.0178 -1301.8944)" fill="#F7F9F8" width="14.8" height="9.9"/>
				</g>
				
					<rect x="1858.8" y="-78.7" transform="matrix(-0.833 0.5533 -0.5533 -0.833 3488.2104 -1202.8478)" fill="#DCE4E8" width="133.7" height="7.4"/>
			</g>
			<g>
				<g>
					<g>
						<g>
							<g>
								<path fill="#9E3023" d="M1587.8-104.9c-4.3,0.7-7.2,4.7-6.5,9l23.2,147c0.7,4.3,4.7,7.2,9,6.5l50.3-7.9l-25.6-162.5
									L1587.8-104.9z"/>
							</g>
						</g>
						<g>
							<g>
								<path fill="#9E3023" d="M1688.4-120.8l-50.3,7.9l25.6,162.5l50.3-7.9c4.3-0.7,7.2-4.7,6.5-9l-23.2-147
									C1696.7-118.5,1692.6-121.5,1688.4-120.8z"/>
							</g>
						</g>
					</g>
					<g>
						<g>
							<path fill="#586273" d="M1590.8-107.9c-4.3,0.7-7.2,4.7-6.5,9l23.2,147c0.7,4.3,4.7,7.2,9,6.5l50.3-7.9l-25.6-162.5
								L1590.8-107.9z"/>
						</g>
					</g>
					<g opacity="0.2">
						<g>
							<path fill="#DCE4E8" d="M1590.8-107.9c-4.3,0.7-7.2,4.7-6.5,9l23.2,147c0.7,4.3,4.7,7.2,9,6.5l50.3-7.9l-25.6-162.5
								L1590.8-107.9z"/>
						</g>
					</g>
					<g>
						<g>
							<path fill="#586273" d="M1691.4-123.8l-50.3,7.9l25.6,162.5l50.3-7.9c4.3-0.7,7.2-4.7,6.5-9l-23.2-147
								C1699.7-121.5,1695.6-124.5,1691.4-123.8z"/>
						</g>
					</g>
				</g>
				<g>
					<g>
						<polygon fill="#F7F9F8" points="1618.4,42.3 1618.4,42.4 1711.3,27.7 1711.3,27.7 1689.3,-111.6 1689.3,-111.6 1596.5,-96.9 
							1596.5,-96.9 						"/>
					</g>
				</g>
				<g>
					<path fill="#464E5C" d="M1638.8-130.4c-6.4,1-10.8,7-9.8,13.4c1,6.4,7,10.8,13.4,9.8c6.4-1,10.8-7,9.8-13.4
						C1651.2-127,1645.2-131.4,1638.8-130.4z M1641.5-113c-3.2,0.5-6.2-1.7-6.7-4.9c-0.5-3.2,1.7-6.2,4.9-6.7
						c3.2-0.5,6.2,1.7,6.7,4.9C1646.9-116.5,1644.7-113.5,1641.5-113z"/>
				</g>
				<g>
					<g>
						<g>
							<g>
								
									<rect x="1624.8" y="21.5" transform="matrix(-0.9878 0.1556 -0.1556 -0.9878 3309.3845 -212.1816)" fill="#DCE4E8" width="76.4" height="3.9"/>
							</g>
						</g>
					</g>
					<g>
						<g>
							<g>
								
									<rect x="1623" y="9.9" transform="matrix(-0.9878 0.1556 -0.1556 -0.9878 3303.9446 -234.9977)" fill="#DCE4E8" width="76.4" height="3.9"/>
							</g>
						</g>
					</g>
					<g>
						<g>
							<g>
								
									<rect x="1621.2" y="-1.7" transform="matrix(-0.9878 0.1556 -0.1556 -0.9878 3298.4966 -257.7553)" fill="#DCE4E8" width="76.4" height="3.9"/>
							</g>
						</g>
					</g>
					<g>
						<g>
							<g>
								
									<rect x="1619.3" y="-13.4" transform="matrix(-0.9878 0.1556 -0.1556 -0.9878 3293.0635 -280.5695)" fill="#DCE4E8" width="76.4" height="3.9"/>
							</g>
						</g>
					</g>
					<g>
						<g>
							<g>
								
									<rect x="1617.5" y="-25" transform="matrix(-0.9878 0.1556 -0.1556 -0.9878 3287.6196 -303.3495)" fill="#DCE4E8" width="76.4" height="3.9"/>
							</g>
						</g>
					</g>
					<g>
						<g>
							<g>
								
									<rect x="1615.7" y="-36.6" transform="matrix(-0.9878 0.1556 -0.1556 -0.9878 3282.175 -326.1235)" fill="#DCE4E8" width="76.4" height="3.9"/>
							</g>
						</g>
					</g>
					<g>
						<g>
							<g>
								
									<rect x="1613.8" y="-48.2" transform="matrix(-0.9878 0.1556 -0.1556 -0.9878 3276.7351 -348.9239)" fill="#DCE4E8" width="76.4" height="3.9"/>
							</g>
						</g>
					</g>
					<g>
						<g>
							<g>
								
									<rect x="1612" y="-59.8" transform="matrix(-0.9878 0.1556 -0.1556 -0.9878 3271.3032 -371.7603)" fill="#DCE4E8" width="76.4" height="3.9"/>
							</g>
						</g>
					</g>
					<g>
						<g>
							<g>
								
									<rect x="1610.2" y="-71.4" transform="matrix(-0.9878 0.1556 -0.1556 -0.9878 3265.8569 -394.4918)" fill="#DCE4E8" width="76.4" height="3.9"/>
							</g>
						</g>
					</g>
					<g>
						<g>
							<g>
								
									<rect x="1608.4" y="-83" transform="matrix(-0.9878 0.1556 -0.1556 -0.9878 3260.4189 -417.2757)" fill="#DCE4E8" width="76.4" height="3.9"/>
							</g>
						</g>
					</g>
					<g>
						<g>
							<g>
								
									<rect x="1606.5" y="-94.6" transform="matrix(-0.9878 0.1556 -0.1556 -0.9878 3254.9795 -440.0953)" fill="#DCE4E8" width="76.4" height="3.9"/>
							</g>
						</g>
					</g>
				</g>
				<g>
					<g>
						<path fill="#464E5C" d="M1671.2-113.7c0.7,4.3-2.3,8.3-6.5,9l-42.6,6.7c-4.3,0.7-8.3-2.3-9-6.5l-0.3-1.9
							c-0.7-4.3,2.3-8.3,6.5-9l42.6-6.7c4.3-0.7,8.3,2.3,9,6.5L1671.2-113.7z"/>
					</g>
				</g>
			</g>
			<g id="mouse04-2">
				<path fill="#9E3023" d="M2269.5-111.8C2269.5-111.8,2269.5-111.8,2269.5-111.8c-9.8-2.1-19.5,4.1-21.7,13.9c0,0,0,0.1,0,0.1
					l0,0.2l-7.2,33.4c0,0.1,0,0.3-0.1,0.4l-0.4,1.8h0c-2.1,9.9,4.2,19.4,14,21.5c9.8,2.1,19.6-4.2,21.7-14l7.7-35.6
					C2285.6-99.9,2279.4-109.6,2269.5-111.8z"/>
				<g>
					<g>
						<path fill="#DCE4E8" d="M2252-100.3c0,0,0,0.1,0,0.1l0,0.2l-7.2,33.4c0,0.1,0,0.2-0.1,0.3l-0.4,1.7h0
							c-2.1,10,4.2,19.5,14,21.6l15.4-71.1C2263.8-116.4,2254.1-110.1,2252-100.3z"/>
						<path fill="#F7F9F8" d="M2273.6-114.2C2273.6-114.2,2273.6-114.2,2273.6-114.2l-15.4,71.1c9.8,2.1,19.6-4.2,21.7-13.9l-0.1,0
							c0,0,0,0,0,0s0,0,0,0l0.1,0l7.7-35.5C2289.7-102.4,2283.5-112.1,2273.6-114.2z"/>
					</g>
				</g>
			</g>
		</g>
		<g id="desk">
			<g>
				<g id="mouse04">
					<path fill="#BE3D2F" d="M1438.6,250.3C1438.6,250.3,1438.6,250.3,1438.6,250.3c-9.8-2.1-19.5,4.1-21.7,13.9c0,0,0,0.1,0,0.1
						l0,0.2l-7.2,33.4c0,0.1,0,0.3-0.1,0.4l-0.4,1.8h0c-2.1,9.9,4.2,19.4,14,21.5c9.8,2.1,19.6-4.2,21.7-14l7.7-35.6
						C1454.7,262.2,1448.5,252.5,1438.6,250.3z"/>
					<g>
						<g>
							<path fill="#DCE4E8" d="M1421.1,261.8c0,0,0,0.1,0,0.1l0,0.2l-7.2,33.4c0,0.1,0,0.2-0.1,0.3l-0.4,1.6h0
								c-2.1,10.1,4.2,19.5,14,21.6l15.4-71.1C1432.9,245.7,1423.2,252,1421.1,261.8z"/>
							<path fill="#F7F9F8" d="M1442.8,247.8C1442.8,247.8,1442.8,247.8,1442.8,247.8l-15.4,71.1c9.8,2.1,19.6-4.2,21.7-13.9l-0.1,0
								l0,0l0,0l0.1,0l7.7-35.5C1458.8,259.7,1452.6,250,1442.8,247.8z"/>
						</g>
					</g>
				</g>
				<g>
					<path fill="#BE3D2F" d="M1204.4-156.9c1.5-6.5,8-10.5,14.4-8.9l57.1,13.4c6.5,1.5,10.5,8,8.9,14.4l-5.8,55.5
						c-1.5,6.5-8,10.5-14.4,8.9l-70.8-16.6c-6.5-1.5-10.5-8-8.9-14.4L1204.4-156.9z"/>
					<path fill="#656D78" d="M1211.6-160.4c1.5-6.5,8-10.5,14.4-8.9l57.1,13.4c6.5,1.5,10.5,8,8.9,14.4l-5.8,55.5
						c-1.5,6.5-8,10.5-14.4,8.9l-70.8-16.6c-6.5-1.5-10.5-8-8.9-14.4L1211.6-160.4z"/>
					<path fill="#AAB2BD" d="M1216.8-159.2c1.5-6.5,8-10.5,14.4-8.9l46.1,10.8c6.5,1.5,10.5,8,8.9,14.4l-2.7,11.7
						c-1.5,6.5-8,10.5-14.4,8.9l-46.1-10.8c-6.5-1.5-10.5-8-8.9-14.4L1216.8-159.2z"/>
					
						<radialGradient id="imaclight_1_" cx="1197.0829" cy="-1165.9751" r="262.5483" gradientTransform="matrix(0.9773 0.2118 5.430000e-02 -0.2503 130.0341 -642.0239)" gradientUnits="userSpaceOnUse">
						<stop  offset="0.103" style="stop-color:#FFFFFF;stop-opacity:0.4"/>
						<stop  offset="0.7955" style="stop-color:#FFFFFF;stop-opacity:5.650000e-02"/>
						<stop  offset="0.9095" style="stop-color:#FFFFFF;stop-opacity:0"/>
					</radialGradient>
					<polygon id="imaclight" fill="url(#imaclight_1_)" points="1547.3,34.5 969.1,-96.9 1024.9,-195.3 1542.3,-74.2 					"/>
					
						<rect x="978.5" y="-127.1" transform="matrix(0.9737 0.228 -0.228 0.9737 7.131 -286.6269)" fill="#E6E9ED" width="531.5" height="29.3"/>
					<path fill="#656D78" d="M1506.2-66.1c0,0-107-42.9-257.3-78c-150.3-35.2-260-43.1-260-43.1L1506.2-66.1z"/>
				</g>
				<g>
					<g>
						<g>
							
								<rect x="1008.8" y="135.6" transform="matrix(0.9833 0.1821 -0.1821 0.9833 51.8232 -205.3251)" fill="#BE3D2F" width="270.6" height="87.9"/>
						</g>
					</g>
					<g>
						<g>
							
								<rect x="1012.7" y="133" transform="matrix(-0.9833 -0.1821 0.1821 -0.9833 2244.4939 559.9081)" fill="#E6E9ED" width="270.6" height="87.9"/>
						</g>
					</g>
					<g id="keyboard">
						
							<rect x="1016" y="177.9" transform="matrix(-0.9833 -0.1821 0.1821 -0.9833 1994.7433 552.4594)" fill="#CCD1D9" width="13.5" height="13.5"/>
						
							<rect x="1019.7" y="157.9" transform="matrix(-0.9833 -0.182 0.182 -0.9833 2005.7773 513.4186)" fill="#CCD1D9" width="13.5" height="13.5"/>
						
							<rect x="1023.3" y="138" transform="matrix(-0.9833 -0.182 0.182 -0.9833 2016.6624 474.5983)" fill="#CCD1D9" width="13.5" height="13.5"/>
						
							<rect x="1027.1" y="118" transform="matrix(-0.9833 -0.1821 0.1821 -0.9833 2027.6693 435.7839)" fill="#CCD1D9" width="13.5" height="13.5"/>
						
							<rect x="1035.9" y="181.6" transform="matrix(-0.9833 -0.1821 0.1821 -0.9833 2033.6051 563.4432)" fill="#CCD1D9" width="13.5" height="13.5"/>
						
							<rect x="1039.7" y="161.6" transform="matrix(-0.9833 -0.1821 0.1821 -0.9833 2044.7292 524.4495)" fill="#CCD1D9" width="13.5" height="13.5"/>
						
							<rect x="1043.4" y="141.6" transform="matrix(-0.9833 -0.1821 0.1821 -0.9833 2055.8125 485.4792)" fill="#CCD1D9" width="13.5" height="13.5"/>
						
							<rect x="1047" y="121.8" transform="matrix(-0.9833 -0.1821 0.1821 -0.9833 2066.4075 446.8069)" fill="#CCD1D9" width="13.5" height="13.5"/>
						
							<rect x="1056" y="185.2" transform="matrix(-0.9833 -0.1821 0.1821 -0.9833 2072.7244 574.2708)" fill="#CCD1D9" width="13.5" height="13.5"/>
						
							<rect x="1059.6" y="165.3" transform="matrix(-0.9833 -0.182 0.182 -0.9833 2083.5625 535.3241)" fill="#CCD1D9" width="13.5" height="13.5"/>
						
							<rect x="1063.3" y="145.3" transform="matrix(-0.9833 -0.1819 0.1819 -0.9833 2094.5586 496.2979)" fill="#CCD1D9" width="13.5" height="13.5"/>
						
							<rect x="1067" y="125.4" transform="matrix(-0.9833 -0.182 0.182 -0.9833 2105.4739 457.5428)" fill="#CCD1D9" width="13.5" height="13.5"/>
						
							<rect x="1075.2" y="196.3" transform="matrix(-0.9833 -0.182 0.182 -0.9833 2189.2996 607.0856)" fill="#CCD1D9" width="94.7" height="13.5"/>
						
							<rect x="1079.5" y="169" transform="matrix(-0.9833 -0.182 0.182 -0.9833 2122.4553 546.2854)" fill="#CCD1D9" width="13.5" height="13.5"/>
						
							<rect x="1083.2" y="149.1" transform="matrix(-0.9833 -0.182 0.182 -0.9833 2133.3928 507.4)" fill="#CCD1D9" width="13.5" height="13.5"/>
						
							<rect x="1087" y="129.1" transform="matrix(-0.9833 -0.1821 0.1821 -0.9833 2144.4153 468.5502)" fill="#CCD1D9" width="13.5" height="13.5"/>
						
							<rect x="1099.4" y="172.7" transform="matrix(-0.9833 -0.1821 0.1821 -0.9833 2161.2441 557.4272)" fill="#CCD1D9" width="13.5" height="13.5"/>
						
							<rect x="1103.2" y="152.8" transform="matrix(-0.9833 -0.1822 0.1822 -0.9833 2172.2119 518.642)" fill="#CCD1D9" width="13.5" height="13.5"/>
						
							<rect x="1106.9" y="132.8" transform="matrix(-0.9833 -0.1819 0.1819 -0.9833 2183.2869 479.3188)" fill="#CCD1D9" width="13.5" height="13.5"/>
						
							<rect x="1119.4" y="176.4" transform="matrix(-0.9833 -0.1819 0.1819 -0.9833 2200.2092 568.1033)" fill="#CCD1D9" width="13.5" height="13.5"/>
						
							<rect x="1123.1" y="156.5" transform="matrix(-0.9833 -0.1819 0.1819 -0.9833 2211.1248 529.2713)" fill="#CCD1D9" width="13.5" height="13.5"/>
						
							<rect x="1126.8" y="136.5" transform="matrix(-0.9833 -0.1819 0.1819 -0.9833 2222.1035 490.368)" fill="#CCD1D9" width="13.5" height="13.5"/>
						
							<rect x="1139.5" y="180" transform="matrix(-0.9833 -0.1819 0.1819 -0.9833 2239.3423 578.8986)" fill="#CCD1D9" width="13.5" height="13.5"/>
						
							<rect x="1143.1" y="160.2" transform="matrix(-0.9833 -0.1821 0.1821 -0.9833 2250.0222 540.4341)" fill="#CCD1D9" width="13.5" height="13.5"/>
						
							<rect x="1146.8" y="140.2" transform="matrix(-0.9833 -0.182 0.182 -0.9833 2261.0154 501.4298)" fill="#CCD1D9" width="13.5" height="13.5"/>
						
							<rect x="1159.5" y="183.7" transform="matrix(-0.9833 -0.1822 0.1822 -0.9833 2278.2219 590.1837)" fill="#CCD1D9" width="13.5" height="13.5"/>
						
							<rect x="1163" y="163.8" transform="matrix(-0.9833 -0.1821 0.1821 -0.9833 2288.9155 551.3851)" fill="#CCD1D9" width="13.5" height="13.5"/>
						
							<rect x="1166.7" y="143.9" transform="matrix(-0.9833 -0.1821 0.1821 -0.9833 2299.9529 512.48)" fill="#CCD1D9" width="13.5" height="13.5"/>
						
							<rect x="1175.6" y="207.5" transform="matrix(-0.9833 -0.1822 0.1822 -0.9833 2305.8464 640.2904)" fill="#CCD1D9" width="13.5" height="13.5"/>
						
							<rect x="1179.3" y="187.5" transform="matrix(-0.9833 -0.1822 0.1822 -0.9833 2316.8967 601.2913)" fill="#CCD1D9" width="13.5" height="13.5"/>
						
							<rect x="1183" y="167.5" transform="matrix(-0.9833 -0.1819 0.1819 -0.9833 2327.9443 562.0438)" fill="#CCD1D9" width="13.5" height="13.5"/>
						
							<rect x="1186.8" y="147.4" transform="matrix(-0.9833 -0.182 0.182 -0.9833 2339.1333 523.0511)" fill="#CCD1D9" width="13.5" height="13.5"/>
						
							<rect x="1195.6" y="211.1" transform="matrix(-0.9833 -0.182 0.182 -0.9833 2344.916 650.8773)" fill="#CCD1D9" width="13.5" height="13.5"/>
						
							<rect x="1199.2" y="191.2" transform="matrix(-0.9833 -0.1821 0.1821 -0.9833 2355.6426 612.2717)" fill="#CCD1D9" width="13.5" height="13.5"/>
						
							<rect x="1203" y="171.2" transform="matrix(-0.9833 -0.182 0.182 -0.9833 2366.8711 573.0593)" fill="#CCD1D9" width="13.5" height="13.5"/>
						
							<rect x="1206.5" y="151.4" transform="matrix(-0.9833 -0.1821 0.1821 -0.9833 2377.4456 534.5854)" fill="#CCD1D9" width="13.5" height="13.5"/>
						
							<rect x="1215.6" y="214.7" transform="matrix(-0.9833 -0.1821 0.1821 -0.9833 2383.9668 661.8566)" fill="#CCD1D9" width="13.5" height="13.5"/>
						
							<rect x="1219.2" y="194.8" transform="matrix(-0.9833 -0.182 0.182 -0.9833 2394.833 622.8889)" fill="#CCD1D9" width="13.5" height="13.5"/>
						
							<rect x="1222.9" y="174.9" transform="matrix(-0.9833 -0.182 0.182 -0.9833 2405.7031 584.0595)" fill="#CCD1D9" width="13.5" height="13.5"/>
						
							<rect x="1226.6" y="155" transform="matrix(-0.9833 -0.1821 0.1821 -0.9833 2416.6208 545.3239)" fill="#CCD1D9" width="13.5" height="13.5"/>
						
							<rect x="1235.4" y="218.5" transform="matrix(-0.9833 -0.1822 0.1822 -0.9833 2422.5288 673.1276)" fill="#CCD1D9" width="13.5" height="13.5"/>
						
							<rect x="1239.2" y="198.5" transform="matrix(-0.9833 -0.1821 0.1821 -0.9833 2433.6199 634.0102)" fill="#CCD1D9" width="13.5" height="13.5"/>
						
							<rect x="1242.8" y="178.6" transform="matrix(-0.9833 -0.1819 0.1819 -0.9833 2444.5945 594.9327)" fill="#CCD1D9" width="13.5" height="13.5"/>
						
							<rect x="1246.5" y="158.6" transform="matrix(-0.9833 -0.1819 0.1819 -0.9833 2455.5828 555.9178)" fill="#CCD1D9" width="13.5" height="13.5"/>
						
							<rect x="1257.2" y="202.1" transform="matrix(-0.9833 -0.1819 0.1819 -0.9833 2467.0957 664.1975)" fill="#CCD1D9" width="13.5" height="33.8"/>
						
							<rect x="1262.7" y="182.4" transform="matrix(-0.9833 -0.1819 0.1819 -0.9833 2483.293 606.0385)" fill="#CCD1D9" width="13.5" height="13.5"/>
						
							<rect x="1266.5" y="162.4" transform="matrix(-0.9833 -0.1822 0.1822 -0.9833 2494.3042 567.454)" fill="#CCD1D9" width="13.5" height="13.5"/>
					</g>
				</g>
			</g>
			<g id="freelance">
				<g>
					<g>
						<path fill="#586273" d="M716.3-70.6l-36.4,12.8c-2.9,1-4.4,4.2-3.4,7L702,22c1,2.9,4.2,4.4,7,3.4l36.4-12.8
							c2.9-1,4.4-4.2,3.4-7l-25.5-72.8C722.3-70,719.1-71.6,716.3-70.6z M741.8,2.2L705.4,15l-23.7-67.6c0,0,0,0,0,0l36.4-12.8
							c0,0,0,0,0,0L741.8,2.2L741.8,2.2z"/>
					</g>
					<g>
						<g>
							
								<rect x="721.3" y="12.4" transform="matrix(-0.9436 0.331 -0.331 -0.9436 1414.5494 -213.3765)" fill="#464E5C" width="8.3" height="2.8"/>
						</g>
					</g>
					<g>
						<g>
							<g>
								<polygon fill="#F7F9F8" points="681.7,-52.6 681.7,-52.6 705.4,15 741.8,2.2 718.1,-65.4 718.1,-65.4 								"/>
							</g>
						</g>
					</g>
					<g>
						<g>
							<g>
								<path fill="#62C3ED" d="M720.1-35l-2.3-3.3c-0.2-0.3-0.8-0.7-1.2-0.7l-6.7-0.5c0,0,0,0,0,0l-0.4-1.1
									c0.5-1.4,0.5-3.2-0.1-4.9l-0.5-1.4c-0.9-2.5-3.5-3.9-5.9-3l0,0l0,0l0,0c-2.4,0.8-3.6,3.5-2.7,6l0.5,1.4
									c0.6,1.8,1.7,3.1,3,3.9l0.4,1.1c0,0,0,0,0,0l-4.9,4.6c-0.3,0.3-0.5,0.9-0.5,1.3l0.2,4c0,0.4,0.4,0.6,0.8,0.5l10-3.5l0,0
									l10-3.5C720.3-34.3,720.4-34.7,720.1-35z"/>
							</g>
						</g>
					</g>
					<g>
						<g>
							
								<rect x="701.4" y="-24.1" transform="matrix(-0.9436 0.331 -0.331 -0.9436 1379.184 -277.095)" fill="#DCE4E8" width="23.6" height="5.9"/>
						</g>
					</g>
					<g>
						<g>
							
								<rect x="704.3" y="-15.7" transform="matrix(-0.9436 0.331 -0.331 -0.9436 1387.6761 -261.8465)" fill="#DCE4E8" width="23.6" height="5.9"/>
						</g>
					</g>
					<g>
						<g>
							
								<rect x="713" y="-7.3" transform="matrix(-0.9436 0.331 -0.331 -0.9436 1395.9154 -246.3992)" fill="#DCE4E8" width="11.8" height="5.9"/>
						</g>
					</g>
					<g>
						<g>
							<g>
								<circle fill="#586273" cx="707.7" cy="-9.8" r="1.1"/>
							</g>
						</g>
						<g>
							<g>
								<circle fill="#586273" cx="713.2" cy="-11.7" r="1.1"/>
							</g>
						</g>
						<g>
							<g>
								<circle fill="#586273" cx="710.4" cy="-10.8" r="1.1"/>
							</g>
						</g>
						<g>
							<g>
								<circle fill="#586273" cx="716" cy="-12.7" r="1.1"/>
							</g>
						</g>
						<g>
							<g>
								<circle fill="#586273" cx="704.7" cy="-18.1" r="1.1"/>
							</g>
						</g>
						<g>
							<g>
								<circle fill="#586273" cx="715.9" cy="-22.1" r="1.1"/>
							</g>
						</g>
						<g>
							<g>
								<circle fill="#586273" cx="710.3" cy="-20.1" r="1.1"/>
							</g>
						</g>
						<g>
							<g>
								<circle fill="#586273" cx="707.5" cy="-19.1" r="1.1"/>
							</g>
						</g>
						<g>
							<g>
								<circle fill="#586273" cx="713.1" cy="-21.1" r="1.1"/>
							</g>
						</g>
					</g>
					<g>
						<g>
							
								<rect x="716.1" y="-5.2" transform="matrix(-0.9436 0.3311 -0.3311 -0.9436 1396.0325 -246.5279)" fill="#EF8555" width="5.9" height="1.8"/>
						</g>
					</g>
					<g opacity="0.2">
						<path fill="#DCE4E8" d="M698.3-64.3l-18.4,6.5c-2.9,1-4.4,4.2-3.4,7L702,22c1,2.9,4.2,4.4,7,3.4l18.4-6.5L698.3-64.3z"/>
					</g>
				</g>
				<g>
					<g>
						<g>
							<circle fill="#BE3D2F" cx="578" cy="-150.2" r="43.9"/>
						</g>
					</g>
					<g>
						<g>
							<circle fill="#F7F9F8" cx="591" cy="-158.2" r="43.9"/>
						</g>
					</g>
					<g>
						<g>
							<path fill="#F7F9F8" d="M632.7-109.7c-2.1,0-4.2-0.8-5.8-2.4l-19.2-19.2c-3.2-3.2-3.2-8.4,0-11.6c3.2-3.2,8.4-3.2,11.6,0
								l19.2,19.2c3.2,3.2,3.2,8.4,0,11.6C636.9-110.5,634.8-109.7,632.7-109.7z"/>
						</g>
					</g>
					<g>
						<g>
							<path fill="#EF8555" d="M623-165.9c-1.4-5.7-4.3-11.1-8.7-15.5c-12.9-12.9-33.7-12.9-46.6,0c-4.4,4.4-7.3,9.8-8.7,15.5
								c-2.6,10.8,0.3,22.6,8.7,31c12.9,12.9,33.7,12.9,46.6,0C622.7-143.3,625.6-155.1,623-165.9z"/>
						</g>
					</g>
					<g>
						<g>
							<g>
								<path fill="#382104" d="M562.9-175.3c5-3.1,10.9-4.8,17.1-4.8c18.2,0,32.9,14.7,32.9,32.9c0,6.3-1.8,12.1-4.8,17.1
									c9.5-5.8,15.8-16.2,15.8-28.1c0-18.2-14.7-32.9-32.9-32.9C579.1-191.1,568.7-184.8,562.9-175.3z"/>
							</g>
						</g>
						<g>
							<g>
								<path fill="#5E2905" d="M580-180.1c-6.3,0-12.1,1.8-17.1,4.8c-3.1,5-4.8,10.9-4.8,17.1c0,18.2,14.7,32.9,32.9,32.9
									c6.3,0,12.1-1.8,17.1-4.8c3.1-5,4.8-10.9,4.8-17.1C612.9-165.4,598.2-180.1,580-180.1z"/>
							</g>
						</g>
					</g>
				</g>
			</g>
			<g id="entrepeneur">
				<g id="ipadscene4">
					<path fill="#BE3D2F" d="M745.6-115.4l-105.1,29c-4.4,1.2-7,5.8-5.8,10.2l39.7,144.1c1.2,4.4,5.8,7,10.2,5.8l105.1-29
						c4.4-1.2,7-5.8,5.8-10.2l-39.7-144.1C754.6-114,750-116.6,745.6-115.4z M785.3,28.6l-105.1,29c0,0-35.6-129.1-35.6-129.1
						c0,0,105-28.9,105.1-28.9L785.3,28.6z"/>
					<path fill="#F7F9F8" d="M647.7-73.5c0,0,35.6,129.1,35.6,129.1l105.1-29c0,0-35.6-129.1-35.6-129.1L647.7-73.5z"/>
					<path fill="#434A54" d="M748.6-117.4l-105.1,29c-4.4,1.2-7,5.8-5.8,10.2l39.7,144.1c1.2,4.4,5.8,7,10.2,5.8l105.1-29
						c4.4-1.2,7-5.8,5.8-10.2l-39.7-144.1C757.6-116,753-118.6,748.6-117.4z M788.3,26.6l-105.1,29c0,0-35.6-129.1-35.6-129.1
						c0,0,105-28.9,105.1-28.9L788.3,26.6z"/>
					
						<rect x="725.6" y="47.1" transform="matrix(-0.9641 0.2657 -0.2657 -0.9641 1462.5756 -99.5622)" fill="#2A2A2A" width="24.9" height="4.2"/>
					<g>
						<g>
							
								<rect x="685.2" y="23.6" transform="matrix(-0.9641 0.2656 -0.2656 -0.9641 1365.1539 -115.1683)" fill="#3498DB" width="10.3" height="22.3"/>
						</g>
						<g>
							
								<rect x="699.4" y="5.1" transform="matrix(-0.9641 0.2657 -0.2657 -0.9641 1389.9772 -141.3568)" fill="#3498DB" width="10.3" height="36.6"/>
						</g>
						<g>
							
								<rect x="717.5" y="9.9" transform="matrix(-0.9641 0.2655 -0.2655 -0.9641 1424.8612 -145.6927)" fill="#3498DB" width="9.5" height="27"/>
						</g>
						<g>
							
								<rect x="731.2" y="-11.8" transform="matrix(-0.9641 0.2656 -0.2656 -0.9641 1449.1396 -175.0453)" fill="#3498DB" width="10.3" height="44.5"/>
						</g>
						<g>
							
								<rect x="749" y="-4.6" transform="matrix(-0.964 0.2658 -0.2658 -0.964 1484.3234 -177.4696)" fill="#3498DB" width="10.3" height="32.6"/>
						</g>
						<g>
							
								<rect x="763.1" y="-29.3" transform="matrix(-0.9641 0.2657 -0.2657 -0.9641 1507.4915 -209.2633)" fill="#3498DB" width="9.5" height="53.3"/>
						</g>
					</g>
					<g>
						<g>
							<g>
								<path fill="#E74C3C" d="M676.4-3.1c-0.7,0.2-1.5,0-2.1-0.5c-0.8-0.8-0.9-2.2,0-3l26.9-27.5c0.8-0.8,2.2-0.9,3,0
									c0.8,0.8,0.9,2.2,0,3L677.3-3.7C677.1-3.4,676.7-3.2,676.4-3.1z"/>
							</g>
						</g>
						<g>
							<g>
								<path fill="#E74C3C" d="M726-22.7c-0.7,0.2-1.5,0-2-0.5c-0.8-0.8-0.9-2.2-0.1-3L754-57.4c0.8-0.8,2.2-0.9,3-0.1
									c0.8,0.8,0.9,2.2,0.1,3L727-23.3C726.7-23,726.4-22.8,726-22.7z"/>
							</g>
						</g>
						<g>
							<g>
								<path fill="#E74C3C" d="M726.1-22.7c-0.4,0.1-0.8,0.1-1.3,0l-22.7-8c-1.1-0.4-1.7-1.6-1.3-2.7c0.4-1.1,1.6-1.7,2.7-1.3
									l22.7,8c1.1,0.4,1.7,1.6,1.3,2.7C727.3-23.4,726.7-22.9,726.1-22.7z"/>
							</g>
						</g>
					</g>
					<g>
						<g>
							
								<rect x="659.1" y="-72.1" transform="matrix(-0.9641 0.2657 -0.2657 -0.9641 1298.8148 -296.7616)" fill="#B7BFC7" width="20.7" height="23.1"/>
						</g>
						<g>
							
								<rect x="680.5" y="-78.6" transform="matrix(-0.9641 0.2657 -0.2657 -0.9641 1339.1185 -332.8118)" fill="#DCE4E8" width="23.1" height="5.6"/>
						</g>
						<g>
							
								<rect x="683" y="-69.3" transform="matrix(-0.9641 0.2657 -0.2657 -0.9641 1340.1107 -314.3776)" fill="#DCE4E8" width="16.7" height="5.6"/>
						</g>
						<g>
							
								<rect x="733.5" y="-83.4" transform="matrix(-0.9641 0.2657 -0.2657 -0.9641 1436.485 -355.5123)" fill="#DCE4E8" width="17.5" height="5.6"/>
						</g>
						<g>
							
								<rect x="701.9" y="-76.3" transform="matrix(-0.9641 0.2657 -0.2657 -0.9641 1387.9434 -334.8132)" fill="#DCE4E8" width="29.4" height="5.6"/>
						</g>
						<g>
							
								<rect x="685.5" y="-59.9" transform="matrix(-0.9641 0.2657 -0.2657 -0.9641 1340.479 -295.651)" fill="#DCE4E8" width="9.5" height="5.6"/>
						</g>
						<g>
							
								<rect x="697.5" y="-64.7" transform="matrix(-0.9641 0.2657 -0.2657 -0.9641 1373.0012 -309.5683)" fill="#DCE4E8" width="19.9" height="5.6"/>
						</g>
						<g>
							
								<rect x="706.1" y="-83.8" transform="matrix(-0.9641 0.2656 -0.2656 -0.9641 1374.6726 -347.9718)" fill="#DCE4E8" width="9.5" height="5.6"/>
						</g>
						<g>
							
								<rect x="717.9" y="-90" transform="matrix(-0.9641 0.2657 -0.2657 -0.9641 1417.3665 -366.2097)" fill="#DCE4E8" width="31" height="5.6"/>
						</g>
					</g>
					<g opacity="0.2">
						<g>
							<path fill="#DCE4E8" d="M696.8-103.1l-53.2,14.7c-4.4,1.2-7,5.8-5.8,10.2l39.7,144.1c1.2,4.4,5.8,7,10.2,5.8l53.2-14.7
								L696.8-103.1z"/>
						</g>
					</g>
				</g>
				<g id="iphone05">
					<path fill="#BE3D2F" d="M883.2,9.8l0.1-8.4l0.6-83.7l0,0l0.1-8.4c0-3.1-2.5-5.6-5.5-5.6l-44.7-0.3c-3.1,0-5.6,2.5-5.6,5.5
						l-0.1,8.4v0l-0.5,83.7l0,0l-0.1,8.4c0,3.1,2.5,5.6,5.5,5.6l44.7,0.3C880.6,15.4,883.2,12.9,883.2,9.8z"/>
					<path fill="#434A54" d="M887.2,7.9l0-8.2l0,0l0-83.8l0,0l0-8.3c0-3.1-2.5-5.6-5.6-5.6l-44.7,0c-3.1,0-5.6,2.4-5.6,5.5l0,7.4h0
						l0,83.7h0l0,9.3c0,3.1,2.5,5.7,5.6,5.6l44.7,0C884.6,13.4,887.2,10.9,887.2,7.9z"/>
					<circle fill="#2A2A2A" cx="857.8" cy="6.5" r="4.2"/>
					<rect id="iphone5positionpath" x="834" y="-83.6" fill="#FFFFFF" width="50.4" height="82.6"/>
					<path fill="#3498DB" d="M855.3-38l5.3-8.6c0.1-0.1,0.1-0.1,0.2-0.1c0.1,0,0.2,0.1,0.2,0.2l4.8,8.5c0.1,0.1,0.1,0.2,0,0.3
						c0,0.1-0.1,0.1-0.2,0.1l-10.1,0c-0.1,0-0.2,0-0.2-0.1C855.2-37.8,855.2-37.9,855.3-38L855.3-38z"/>
				</g>
			</g>
			<g id="employee">
				<g>
					<g>
						<g>
							<path fill="#586273" d="M652.7-92.5c-4.3,0.7-7.2,4.7-6.5,9l23.2,147c0.7,4.3,4.7,7.2,9,6.5l50.3-7.9L703-100.4L652.7-92.5z"
								/>
						</g>
					</g>
					<g opacity="0.2">
						<g>
							<path fill="#AAB2BD" d="M652.7-92.5c-4.3,0.7-7.2,4.7-6.5,9l23.2,147c0.7,4.3,4.7,7.2,9,6.5l50.3-7.9L703-100.4L652.7-92.5z"
								/>
						</g>
					</g>
					<g>
						<g>
							<path fill="#656D78" d="M753.3-108.4l-50.3,7.9l25.6,162.5l50.3-7.9c4.3-0.7,7.2-4.7,6.5-9l-23.2-147
								C761.6-106.1,757.5-109,753.3-108.4z"/>
						</g>
					</g>
				</g>
				<g>
					<g>
						<polygon fill="#F7F9F8" points="680.3,57.8 680.3,57.8 773.2,43.2 773.2,43.2 751.2,-96.1 751.2,-96.1 658.4,-81.5 
							658.4,-81.5 						"/>
					</g>
				</g>
				<g>
					<path fill="#464E5C" d="M700.7-114.9c-6.4,1-10.8,7-9.8,13.4c1,6.4,7,10.8,13.4,9.8c6.4-1,10.8-7,9.8-13.4
						S707.1-115.9,700.7-114.9z M703.4-97.5c-3.2,0.5-6.2-1.7-6.7-4.9c-0.5-3.2,1.7-6.2,4.9-6.7c3.2-0.5,6.2,1.7,6.7,4.9
						C708.8-101,706.6-98,703.4-97.5z"/>
				</g>
				<g>
					<g>
						<g>
							<g>
								
									<rect x="686.7" y="36.9" transform="matrix(-0.9878 0.1556 -0.1556 -0.9878 1447.0376 -35.5482)" fill="#DCE4E8" width="76.4" height="3.9"/>
							</g>
						</g>
					</g>
					<g>
						<g>
							<g>
								
									<rect x="684.9" y="25.3" transform="matrix(-0.9878 0.1556 -0.1556 -0.9878 1441.6221 -58.3651)" fill="#DCE4E8" width="76.4" height="3.9"/>
							</g>
						</g>
					</g>
					<g>
						<g>
							<g>
								
									<rect x="683.1" y="13.7" transform="matrix(-0.9878 0.1556 -0.1556 -0.9878 1436.1541 -81.1213)" fill="#DCE4E8" width="76.4" height="3.9"/>
							</g>
						</g>
					</g>
					<g>
						<g>
							<g>
								
									<rect x="681.2" y="2.1" transform="matrix(-0.9878 0.1556 -0.1556 -0.9878 1430.7175 -103.9143)" fill="#DCE4E8" width="76.4" height="3.9"/>
							</g>
						</g>
					</g>
					<g>
						<g>
							<g>
								
									<rect x="679.4" y="-9.5" transform="matrix(-0.9878 0.1556 -0.1556 -0.9878 1425.2896 -126.7184)" fill="#DCE4E8" width="76.4" height="3.9"/>
							</g>
						</g>
					</g>
					<g>
						<g>
							<g>
								
									<rect x="677.6" y="-21.1" transform="matrix(-0.9878 0.1556 -0.1556 -0.9878 1419.8433 -149.5029)" fill="#DCE4E8" width="76.4" height="3.9"/>
							</g>
						</g>
					</g>
					<g>
						<g>
							<g>
								
									<rect x="675.8" y="-32.7" transform="matrix(-0.9878 0.1556 -0.1556 -0.9878 1414.3976 -172.2861)" fill="#DCE4E8" width="76.4" height="3.9"/>
							</g>
						</g>
					</g>
					<g>
						<g>
							<g>
								
									<rect x="673.9" y="-44.4" transform="matrix(-0.9878 0.1556 -0.1556 -0.9878 1408.9716 -195.0868)" fill="#DCE4E8" width="76.4" height="3.9"/>
							</g>
						</g>
					</g>
					<g>
						<g>
							<g>
								
									<rect x="672.1" y="-56" transform="matrix(-0.9878 0.1556 -0.1556 -0.9878 1403.526 -217.8717)" fill="#DCE4E8" width="76.4" height="3.9"/>
							</g>
						</g>
					</g>
					<g>
						<g>
							<g>
								
									<rect x="670.3" y="-67.6" transform="matrix(-0.9878 0.1556 -0.1556 -0.9878 1398.0804 -240.6513)" fill="#DCE4E8" width="76.4" height="3.9"/>
							</g>
						</g>
					</g>
					<g>
						<g>
							<g>
								
									<rect x="668.4" y="-79.2" transform="matrix(-0.9878 0.1556 -0.1556 -0.9878 1392.6401 -263.4504)" fill="#DCE4E8" width="76.4" height="3.9"/>
							</g>
						</g>
					</g>
				</g>
				<g>
					<g>
						<path fill="#464E5C" d="M733.1-98.2c0.7,4.3-2.3,8.3-6.5,9L684-82.6c-4.3,0.7-8.3-2.3-9-6.5l-0.3-1.9c-0.7-4.3,2.3-8.3,6.5-9
							l42.6-6.7c4.3-0.7,8.3,2.3,9,6.5L733.1-98.2z"/>
					</g>
				</g>
			</g>
			<g id="clients">
				<g id="luiss">
					<g>
						
						<path fill="#ECF0F1" d="M772.4,280.2c-0.1,2.6-2.3,4.7-4.9,4.7l-100.6-2.1c-2.6-0.1-4.7-2.3-4.7-4.9l3-143.6
							c0.1-2.6,2.3-4.7,4.9-4.7l100.6,2.1c2.6,0.1,4.7,2.3,4.7,4.9L772.4,280.2z"/>
						<path fill="#E5E5E5" d="M667.4,256.2l-9.6-0.2l0.1-4.8l9.6,0.2L667.4,256.2z M667.3,260.9l-9.6-0.2l-0.1,4.8l9.6,0.2
							L667.3,260.9z M667.1,270.4l-9.6-0.2l-0.1,4.8l9.6,0.2L667.1,270.4z M667.7,242.3l-9.6-0.2l-0.1,4.8l9.6,0.2L667.7,242.3z
							 M667.9,232.6l-9.6-0.2l-0.1,4.8l9.6,0.2L667.9,232.6z M668.1,223l-9.6-0.2l-0.1,4.8l9.6,0.2L668.1,223z M668.3,213.5
							l-9.6-0.2l-0.1,4.8l9.6,0.2L668.3,213.5z M668.5,203.8l-9.6-0.2l-0.1,4.8l9.6,0.2L668.5,203.8z M668.7,194.2l-9.6-0.2
							l-0.1,4.8l9.6,0.2L668.7,194.2z M668.9,184.8l-9.6-0.2l-0.1,4.8l9.6,0.2L668.9,184.8z M669.1,175.1l-9.6-0.2l-0.1,4.8l9.6,0.2
							L669.1,175.1z M669.3,165.5l-9.6-0.2l-0.1,4.8l9.6,0.2L669.3,165.5z M669.5,156l-9.6-0.2l-0.1,4.8l9.6,0.2L669.5,156z
							 M669.7,146.3l-9.6-0.2l-0.1,4.8l9.6,0.2L669.7,146.3z M669.9,136.7l-9.6-0.2l-0.1,4.8l9.6,0.2L669.9,136.7z"/>
						<path fill="#BDC3C7" d="M766.1,148.1l-24.8-0.5l0.1-3.8l24.8,0.5L766.1,148.1z M766.1,150.6l-24.8-0.5l-0.1,3.8l24.8,0.5
							L766.1,150.6z M765.9,157l-24.8-0.5l-0.1,3.8l24.8,0.5L765.9,157z M765.8,163.4l-24.8-0.5l-0.1,3.8l24.8,0.5L765.8,163.4z
							 M764.8,213.7l-85.3-1.8l0.1-3.8l85.3,1.8L764.8,213.7z M765,203.5l-85.3-1.8l-0.1,3.8l85.3,1.8L765,203.5z M765.1,197.1
							l-85.3-1.8l-0.1,3.8l85.3,1.8L765.1,197.1z M765.2,190.7l-85.3-1.8l-0.1,3.8l85.3,1.8L765.2,190.7z M713.7,215.2l-34.4-0.7
							l-0.1,3.8l34.4,0.7L713.7,215.2z"/>
					</g>
					<text x="683" y="155" style="font-weight:bold;font-size:x-small;fill:darkgreen" >App ExhangeApps</text>
					<text x="683" y="175" style="font-weight:bold;font-size:x-small;fill:darkgreen" >Web Apps</text>
				</g>
				<g id="algida">
					<g>
						
							<rect x="828.5" y="120.9" transform="matrix(-0.9995 3.000150e-02 -3.000150e-02 -0.9995 1773.7046 370.6915)" fill="#BE3D2F" width="111.1" height="155.4"/>
						
							<rect x="829.5" y="119.9" transform="matrix(-0.9995 3.000150e-02 -3.000150e-02 -0.9995 1775.6052 368.6152)" fill="#FFFFFF" width="111.1" height="155.4"/>
							<text x="833" y="165" style="font-weight:bold;font-size:x-small;fill:darkmagenta" >www.meabhinav.com</text>
					</g>
					<g>
						
						
					</g>
					<g>
						<g>
							
								<rect x="846.1" y="209.3" transform="matrix(0.9995 -3.000150e-02 3.000150e-02 0.9995 -5.9338 26.673)" fill="#DCE4E8" width="79.6" height="3.6"/>
						</g>
						<g>
							
								<rect x="845.9" y="203.4" transform="matrix(0.9995 -3.000150e-02 3.000150e-02 0.9995 -5.7557 26.6649)" fill="#DCE4E8" width="79.6" height="3.6"/>
						</g>
						<g>
							
								<rect x="845.7" y="197.4" transform="matrix(0.9995 -3.000150e-02 3.000150e-02 0.9995 -5.5775 26.657)" fill="#DCE4E8" width="79.6" height="3.6"/>
						</g>
						<g>
							
								<rect x="845.6" y="191.5" transform="matrix(0.9995 -3.000150e-02 3.000150e-02 0.9995 -5.3995 26.649)" fill="#DCE4E8" width="79.6" height="3.6"/>
						</g>
						<g>
							
								<rect x="846.3" y="215.9" transform="matrix(0.9995 -3.000150e-02 3.000150e-02 0.9995 -6.1438 25.9688)" fill="#DCE4E8" width="32.1" height="3.6"/>
						</g>
					</g>
				</g>
				<g id="unilever">
					<g>
						<rect x="525.4" y="9.1" fill="#BE3D2F" width="111.1" height="155.4"/>
						<rect x="526.4" y="8.1" fill="#DCE4E8" width="111.1" height="155.4"/>
						<text x="535" y="65" style="font-weight:bold;font-size:small;fill:red">BePolite IOS App</text>
					</g>
					<g>
						<g>
							<rect x="536.4" y="136.2" fill="#3498DB" width="93.5" height="4.2"/>
						</g>
						<g>
							<rect x="536.4" y="129.2" fill="#3498DB" width="93.5" height="4.2"/>
						</g>
						<g>
							<rect x="536.4" y="122.2" fill="#3498DB" width="93.5" height="4.2"/>
						</g>
						<g>
							<rect x="536.4" y="115.3" fill="#3498DB" width="93.5" height="4.2"/>
						</g>
						<g>
							<rect x="536.4" y="143.2" fill="#3498DB" width="37.7" height="4.2"/>
						</g>
					</g>
				</g>
				<g id="alitalia">
					<g>
						
							<rect x="512.1" y="89.6" transform="matrix(-0.9937 -0.1123 0.1123 -0.9937 1112.918 397.2945)" fill="#BE3D2F" width="111.2" height="155.5"/>
						
							<rect x="513.3" y="88.8" transform="matrix(-0.9937 -0.1123 0.1123 -0.9937 1115.438 395.9095)" fill="#ECF0F1" width="111.2" height="155.5"/>
							<text x="525" y="125" style="font-weight:bold;font-size:xx-large;fill:blue">ADT</text>	
					</g>
					<g>
											
					</g>
					<g>
						<g>
							<g>
								
									<rect x="526.9" y="132.5" transform="matrix(0.9923 0.124 -0.124 0.9923 21.0978 -69.8901)" fill="#DCE4E8" width="90.2" height="4"/>
							</g>
							<g>
								
									<rect x="526.1" y="139.2" transform="matrix(0.9923 0.124 -0.124 0.9923 21.9199 -69.7343)" fill="#DCE4E8" width="90.2" height="4"/>
							</g>
							<g>
								
									<rect x="525.2" y="145.9" transform="matrix(0.9923 0.124 -0.124 0.9923 22.7417 -69.5815)" fill="#DCE4E8" width="90.2" height="4"/>
							</g>
						</g>
						<g>
							<g>
								
									<rect x="520.4" y="184.6" transform="matrix(0.9923 0.124 -0.124 0.9923 27.5088 -68.6808)" fill="#DCE4E8" width="90.2" height="4"/>
							</g>
							<g>
								
									<rect x="519.6" y="190.1" transform="matrix(0.9923 0.124 -0.124 0.9923 28.0981 -67.2935)" fill="#DCE4E8" width="70" height="4"/>
							</g>
						</g>
						<g>
							<g>
								
									<rect x="523.8" y="156.7" transform="matrix(0.9923 0.124 -0.124 0.9923 23.9546 -67.4361)" fill="#B7BFC7" width="59.9" height="4"/>
							</g>
							<g>
								
									<rect x="522.9" y="163.4" transform="matrix(0.9923 0.124 -0.124 0.9923 24.7762 -67.2809)" fill="#DCE4E8" width="59.9" height="4"/>
							</g>
							<g>
								
									<rect x="522.1" y="170.1" transform="matrix(0.9923 0.124 -0.124 0.9923 25.5984 -67.1269)" fill="#DCE4E8" width="59.9" height="4"/>
							</g>
							<g>
								
									<rect x="589.2" y="162.7" transform="matrix(0.9923 0.124 -0.124 0.9923 25.8928 -73.1996)" fill="#62C3ED" width="23.6" height="17.5"/>
							</g>
						</g>
					</g>
				</g>
				<g id="enel">
					<path fill="#ECF0F1" d="M778.5,307.6c0.2,2.6-1.7,5-4.3,5.2l-100.2,9.1c-2.6,0.2-5-1.7-5.2-4.3l-13-143.1
						c-0.2-2.6,1.7-5,4.3-5.2l100.2-9.1c2.6-0.2,5,1.7,5.2,4.3L778.5,307.6z"/>
					<path fill="#E5E5E5" d="M671.5,295.8l-9.5,0.9l-0.4-4.8l9.5-0.9L671.5,295.8z M672,300.4l-9.5,0.9l0.4,4.8l9.5-0.9L672,300.4z
						 M672.8,309.9l-9.5,0.9l0.4,4.8l9.5-0.9L672.8,309.9z M670.2,281.6l-9.5,0.9l0.4,4.8l9.5-0.9L670.2,281.6z M669.4,271.9
						l-9.5,0.9l0.4,4.8l9.5-0.9L669.4,271.9z M668.5,262.4l-9.5,0.9l0.4,4.8l9.5-0.9L668.5,262.4z M667.6,252.9l-9.5,0.9l0.4,4.8
						l9.5-0.9L667.6,252.9z M666.8,243.3l-9.5,0.9l0.4,4.8l9.5-0.9L666.8,243.3z M665.9,233.7l-9.5,0.9l0.4,4.8l9.5-0.9L665.9,233.7
						z M665,224.3l-9.5,0.9l0.4,4.8l9.5-0.9L665,224.3z M664.2,214.6l-9.5,0.9l0.4,4.8l9.5-0.9L664.2,214.6z M663.3,205.1l-9.5,0.9
						l0.4,4.8l9.5-0.9L663.3,205.1z M662.4,195.6l-9.5,0.9l0.4,4.8l9.5-0.9L662.4,195.6z M661.6,186l-9.5,0.9l0.4,4.8l9.5-0.9
						L661.6,186z M660.7,176.4l-9.5,0.9l0.4,4.8l9.5-0.9L660.7,176.4z"/>
					<path fill="#EE3E28" d="M686.4,204.4c-5.4-0.1-10.8,9.1-16.8,4.3c3.5-0.4,5.5-2.9,8.3-4.5C680.1,202.9,684.4,202.2,686.4,204.4
						z M678.7,198.7c-3.3,0.3-6.1,1.8-9.4,0.7c3.5,6.9,12.2,0.7,17.1,2.9C685.5,199.5,681.2,198.5,678.7,198.7z M681.3,194
						c-3.1-1.1-6.3-1-8.8-3.3c0.3,7.7,10.7,5.7,14.3,9.9C687.2,197.6,683.7,194.8,681.3,194z M686,190.7c-2.3-2.3-5.3-3.5-6.6-6.8
						c-3,7.1,7.3,9.8,8.7,15C689.8,196.4,687.8,192.5,686,190.7z M691.5,189.8c-1.1-3.1-3.3-5.4-3.1-8.9c-5.8,5.2,2.5,11.9,1.6,17.3
						C692.4,196.6,692.3,192.2,691.5,189.8z M696.9,191.2c0.3-3.3-0.7-6.3,0.9-9.4c-7.4,2.2-2.8,11.9-5.9,16.3
						C694.9,197.8,696.7,193.7,696.9,191.2z M701.1,194.9c1.7-2.8,2.1-6,4.9-8c-7.7-1.2-7.6,9.4-12.4,12.1
						C696.4,200,699.8,197.1,701.1,194.9z M703.3,200.1c2.7-1.8,4.5-4.5,8-5.1c-6.4-4.4-11,5.2-16.5,5.5
						C696.9,202.7,701.1,201.6,703.3,200.1z M703.3,205.7c3.3-0.4,6-2.1,9.4-1.1c-3.8-6.7-12.2-0.1-17.2-2.2
						C696.4,205.2,700.8,206,703.3,205.7z M701.5,219.3c-5.8-3.6-6.4-9-7-15.1C689.7,210,693.3,220.1,701.5,219.3z M687.3,204.8
						c0.6,6.2,1.2,11.6-3.8,16.3C691.8,220.3,693.2,209.6,687.3,204.8z"/>
						<text x="675" y="255" style="font-weight:bold;font-size:small;fill:darkmagenta">Egen Solutions</text>
				</g>
				<g id="equitalia">
					<g>
						
							<rect x="820.7" y="185" transform="matrix(-0.9984 -5.630078e-02 5.630078e-02 -0.9984 1736.427 574.3133)" fill="#BE3D2F" width="111.1" height="155.4"/>
							<rect x="821.9" y="184.1" transform="matrix(-0.9984 -5.630078e-02 5.630078e-02 -0.9984 1738.7008 572.6115)" fill="#F5ECD9" width="111.1" height="155.4"/>
					</g>
					<g>
						<path fill="#7F94C8" d="M848.1,209c-0.1,0-0.2,0-0.3,0c-0.3,0-0.6-0.3-0.6-0.7l0.6-9.5l-14.5,5.6c-0.1,0.1-0.2,0.2-0.2,0.3
							c0,0.1,0.1,0.3,0.2,0.4l18.8,10.4c0.1,0,0.2,0.1,0.2,0.1c0.4,0,0.6-0.2,0.7-0.6l0.6-8.2L848.1,209"/>
							<text x="870" y="220" style="font-weight:bold;font-size:small;fill:darkorchid">Mobiquity</text>
					</g>
					<g>
						<g>
							
								<rect x="835.5" y="232" transform="matrix(0.9987 5.139888e-02 -5.139888e-02 0.9987 13.1908 -44.9549)" fill="#DCE4E8" width="90.2" height="4"/>
						</g>
						<g>
							
								<rect x="835.2" y="238.7" transform="matrix(0.9987 5.139888e-02 -5.139888e-02 0.9987 13.536 -44.9282)" fill="#DCE4E8" width="90.2" height="4"/>
						</g>
						<g>
							
								<rect x="834.9" y="245.4" transform="matrix(0.9987 5.139888e-02 -5.139888e-02 0.9987 13.8807 -44.9022)" fill="#DCE4E8" width="90.2" height="4"/>
						</g>
					</g>
				</g>
				<g id="infostrada">
					<g>
						
							<rect x="810.3" y="219.5" transform="matrix(-0.9999 1.210032e-02 -1.210032e-02 -0.9999 1735.1945 583.9326)" fill="#BE3D2F" width="111.1" height="155.4"/>
						
							<rect x="811.1" y="218.3" transform="matrix(-0.9999 1.210032e-02 -1.210032e-02 -0.9999 1736.9276 581.6261)" fill="#FFFFFF" width="111.1" height="155.4"/>
					</g>
					<g>
							<text x="815" y="260" style="font-weight:bold;font-size:small;fill:blue">CircleBackLending</text>
						<g>
							<path fill="#14267B" d="M853.9,250.6c0,0,1.6,2,2.1,2.7c0.6,0.6,1.2,1.5,1.9,1.5c0.8,0,1.7-1.2,2-1.4
								c0.5-0.4,0.8-0.4,1.1-0.4c0.9-0.1,2.8,1,4,1c3.2-0.1,5.8-2.6,7.1-3.7c1.2-1.2,2-1.9,2-1.9s0.4,0.1,0.1,0.7
								c-0.2,0.5-3.5,5.9-9.1,6.2c-2.5,0.1-2.9-1.2-4.3-1c-0.9,0.1-1.8,1.9-3.5,1.9c-1.4,0-3.5-4.2-3.5-4.2S853.1,250.7,853.9,250.6
								L853.9,250.6z"/>
							<path fill="#EA690B" d="M860,252c0.7-0.2,1.1-0.8,0.9-1.3c-0.2-0.5-0.8-0.7-1.5-0.5c-0.7,0.2-1.1,0.8-0.9,1.3
								C858.6,251.9,859.3,252.2,860,252L860,252z"/>
						</g>
					</g>
					<g>
						<path fill="#F5ECD9" d="M905.9,341.9l-76.4,1.3l-0.1-3.9l76.4-1.3L905.9,341.9z M905.6,326.2l-76.4,1.3l0.1,3.9l76.4-1.3
							L905.6,326.2z M905.4,314.5l-76.4,1.3l0.1,3.9l76.4-1.3L905.4,314.5z M905.2,302.7l-76.4,1.3l0.1,3.9l76.4-1.3L905.2,302.7z
							 M905,291l-76.4,1.3l0.1,3.9l76.4-1.3L905,291z"/>
						<g>
							<g>
								<g>
									
										<rect x="828.4" y="279.9" transform="matrix(0.9999 -1.679931e-02 1.679931e-02 0.9999 -4.6124 14.5987)" fill="#3498DB" width="76.4" height="3.9"/>
								</g>
							</g>
						</g>
					</g>
				</g>
				<g id="nintendo">
					<g>
						
							<rect x="511.8" y="127.8" transform="matrix(-0.9965 -8.350065e-02 8.350065e-02 -0.9965 1115.6144 457.7294)" fill="#BE3D2F" width="111.1" height="155.4"/>
						
							<rect x="513" y="127" transform="matrix(-0.9965 -8.350065e-02 8.350065e-02 -0.9965 1118.0179 456.176)" fill="#F5F7FA" width="111.1" height="155.4"/>
					</g>
					<g>
						<text x="525" y="180" style="font-weight:bold;font-size:medium;fill:darkorchid">Mobiquity</text>
						<path fill="#FFFFFF" d="M537.3,153.5c-3.4-0.3-5.6,1.8-5.9,4.6c-0.2,2.8,1.6,5.2,5,5.5l40,3.5c3.4,0.3,5.6-1.8,5.9-4.6
							s-1.6-5.2-5-5.5L537.3,153.5L537.3,153.5z"/>
						
					</g>
					<path fill="#D1D3D3" d="M615.5,233.5l-97.8-8.5l0.4-4.4l97.8,8.5L615.5,233.5z M616.5,221.8l-97.8-8.5l-0.4,4.4l97.8,8.5
						L616.5,221.8z M617.1,214.5l-97.8-8.5l-0.4,4.4l97.8,8.5L617.1,214.5z M617.8,207.2l-97.8-8.5l-0.4,4.4l97.8,8.5L617.8,207.2z
						 M622.4,153.9l-28.5-2.5l-0.4,4.4l28.5,2.5L622.4,153.9z M621.4,165.6l-28.5-2.5l0.4-4.4l28.5,2.5L621.4,165.6z M620.7,172.9
						l-28.5-2.5l0.4-4.4l28.5,2.5L620.7,172.9z M620.1,180.2l-28.5-2.5l0.4-4.4l28.5,2.5L620.1,180.2z M556.9,231.3l-39.4-3.4
						l-0.4,4.4l39.4,3.4L556.9,231.3z"/>
				</g>
				<g id="peroni">
					<path fill="#BE3D2F" d="M683.2,390.8c0.7,2.5,3.4,4,5.9,3.3l96.8-27.7c2.5-0.7,4-3.4,3.3-5.9l-39.5-138.1
						c-0.7-2.5-3.4-4-5.9-3.3L647,246.8c-2.5,0.7-4,3.4-3.3,5.9l0.7,2.3l-4.6,1.3l1.3,4.6l4.6-1.3l1.3,4.6l-4.6,1.3l1.3,4.6l4.6-1.3
						l1.3,4.7l-4.6,1.3l1.3,4.6l4.6-1.3l1.3,4.5l-4.6,1.3l1.3,4.6l4.6-1.3l1.3,4.6l-4.6,1.3l1.3,4.6l4.6-1.3l1.3,4.7l-4.6,1.3
						l1.3,4.6l4.6-1.3l1.3,4.5l-4.6,1.3l1.3,4.6l4.6-1.3l1.3,4.6l-4.6,1.3l1.3,4.6l4.6-1.3l1.4,4.7l-4.6,1.3l1.3,4.6l4.6-1.3
						l1.3,4.5l-4.6,1.3l1.3,4.6l4.6-1.3l1.3,4.6l-4.6,1.3l1.3,4.6l4.6-1.3l1.4,4.7l-4.6,1.3l1.3,4.6l4.6-1.3l1.3,4.5l-4.6,1.3
						l1.3,4.6l4.6-1.3l1.3,4.5L674,376l1.3,4.6l4.6-1.3l1.3,4.6l-4.6,1.3l1.3,4.6l4.6-1.3L683.2,390.8z"/>
					<path fill="#FFFFFF" d="M790.8,357.5c0.7,2.5-0.8,5.2-3.3,5.9l-96.8,27.7c-2.5,0.7-5.2-0.8-5.9-3.3l-39.5-138.1
						c-0.7-2.5,0.8-5.2,3.3-5.9l96.8-27.7c2.5-0.7,5.2,0.8,5.9,3.3L790.8,357.5z"/>
					<path fill="#E5E5E5" d="M683.5,365.9l-9.2,2.6L673,364l9.2-2.6L683.5,365.9z M684.8,370.4l-9.2,2.6l1.3,4.6l9.2-2.6
						L684.8,370.4z M687.5,379.6l-9.2,2.6l1.3,4.6l9.2-2.6L687.5,379.6z M679.7,352.2l-9.2,2.6l1.3,4.6l9.2-2.6L679.7,352.2z
						 M676.9,342.8l-9.2,2.6l1.3,4.6l9.2-2.6L676.9,342.8z M674.3,333.7l-9.2,2.6l1.3,4.6l9.2-2.6L674.3,333.7z M671.7,324.6
						l-9.2,2.6l1.3,4.6l9.2-2.6L671.7,324.6z M669.2,315.2l-9.2,2.6l1.3,4.6l9.2-2.6L669.2,315.2z M666.5,306.1l-9.2,2.6l1.3,4.6
						l9.2-2.6L666.5,306.1z M663.8,296.9l-9.2,2.6l1.3,4.6l9.2-2.6L663.8,296.9z M661.1,287.6l-9.2,2.6l1.3,4.6l9.2-2.6L661.1,287.6
						z M658.5,278.4l-9.2,2.6l1.3,4.6l9.2-2.6L658.5,278.4z M655.9,269.3l-9.2,2.6l1.3,4.6l9.2-2.6L655.9,269.3z M653.3,259.9
						l-9.2,2.6l1.3,4.6l9.2-2.6L653.3,259.9z M650.6,250.7l-9.2,2.6l1.3,4.6l9.2-2.6L650.6,250.7z"/>
					
					<path fill="#FFFFFF" d="M742,247.5c-0.4-1.3-0.9-2.5-1.3-3.7c-0.6-1.6-1.3-3.1-2-4.6c-0.7-1.4-1.4-2.7-2.4-3.9
						c-0.4-0.5-0.6-0.2-0.8,0.3c-0.1,0.4-1.2,3-1.2,3l0,0c-0.6,0.2-61.4,18.2-61.4,18.2s-2.5-1.8-2.8-2c-0.3-0.2-0.6-0.1-0.6,0.3
						c0,3.5,0.1,6.7,0.9,10.2c0.9,3.8,2.1,7.5,3.9,11c0.8,1.5,1.8,3,2.8,4.3c0.3,0.4,0.6,0.1,0.7-0.2c0.1-0.1,1.3-3,1.3-3
						c0.9-0.3,60.5-17.9,61.2-18.2c0,0,2.2,1.6,2.6,1.9c0.4,0.3,0.7,0.1,0.8-0.3C744.4,256.6,743.4,251.8,742,247.5"/>
						<text x="665" y="260" style="font-weight:bold;font-size:xx-small;fill:darkorchid">Quantum Mechanics</text>
					<path fill="#C1E5E8" d="M756.8,280.6l-77.1,22.3l-1-3.5l77.1-22.3L756.8,280.6z M757.5,282.9l-77.1,22.3l1,3.5l77.1-22.3
						L757.5,282.9z M760.1,292.1L683,314.4l-1-3.5l77.1-22.3L760.1,292.1z M761.8,297.9l-77.1,22.3l-1-3.5l77.1-22.3L761.8,297.9z"
						/>
				</g>
				<g id="sapienza">
					<g>
						
							<rect x="511.3" y="180.5" transform="matrix(-0.9986 -5.220191e-02 5.220191e-02 -0.9986 1119.4163 545.6042)" fill="#BE3D2F" width="111.1" height="155.4"/>
						
							<rect x="512.4" y="179.6" transform="matrix(-0.9986 -5.220191e-02 5.220191e-02 -0.9986 1121.795 543.9896)" fill="#FFFFFF" width="111.1" height="155.4"/>
					</g>
					<text x="525" y="210" style="font-weight:bold;font-size:xx-small;fill:black">2 quantum research</text>
					<text x="525" y="220" style="font-weight:bold;font-size:xx-small;fill:black">papers in IEEE</text>
					<path fill="#FFFFFF" d="M538.9,195.8c0,0.4-0.1,1.4-0.1,1.8c0,0.2,0,0.3,0.1,0.4c0,0,0.1,0.1,0.1,0.1c0,0,0.1,0,0.1,0
						c0,0,0.1,0,0.1,0c0.1,0,0.2,0,0.4-0.2c0.2-0.2,0.8-0.8,1-1c0.1-0.1,0-0.1-0.1-0.1c-0.4,0-0.9,0.4-1.3,0.7
						C539.3,197.1,539.3,196.1,538.9,195.8C538.9,195.7,538.9,195.7,538.9,195.8 M538.5,195.7c-0.3,0.4-0.4,1.3-0.5,1.7
						c-0.3-0.3-0.8-0.7-1.2-0.8c-0.1,0-0.1,0-0.1,0.1c0.2,0.2,0.7,0.8,0.9,1.1c0.1,0.1,0.2,0.2,0.3,0.2c0.1,0,0.1,0,0.1,0
						c0,0,0.1,0,0.1,0c0,0,0.1,0,0.1-0.1c0.1-0.1,0.2-0.2,0.2-0.4C538.5,197.1,538.6,196.1,538.5,195.7
						C538.6,195.6,538.5,195.6,538.5,195.7z M534.3,204.5c0-0.3-0.2-0.6-0.5-0.7c0,0-0.1,0-0.1,0c-1.4-0.2-2.7-0.6-3.9-1.4
						c0,0-0.1,0,0,0c0.1,0.1,0.3,0.3,0.6,0.6c0.4,0.3,1.6,1,2.7,1.2C533.5,204.4,533.9,204.4,534.3,204.5z M535.3,206.1
						c0-0.1,0-0.3,0-0.4c0-0.1-0.1-0.2-0.2-0.3c-0.2-0.1-0.3-0.2-0.5-0.2c-1.4-0.1-2.7-0.7-3.9-1.6c-0.1,0-0.1,0,0,0
						c0.2,0.3,0.4,0.6,0.7,0.8c0.8,0.7,1.7,1.1,2.7,1.3c0.2,0.1,0.4,0.1,0.6,0.1c0,0,0.1,0,0.1,0c0,0,0,0,0,0.1c0,0.2,0,0.4-0.1,0.6
						c0,1,0.1,2,0.6,2.9c0.1,0.3,0.4,0.6,0.6,0.8c0,0.1,0.1,0,0.1,0C535.2,208.9,535,207.5,535.3,206.1z M536.4,207.3
						c0,0,0-0.1,0-0.1c0-0.3-0.2-0.6-0.5-0.6l0,0c-0.1,0.4-0.1,0.8-0.1,1.2c0,1.1,0.3,2.4,0.5,2.9c0.2,0.4,0.3,0.6,0.4,0.7
						c0,0,0.1,0,0.1,0C536.3,209.9,536.2,208.6,536.4,207.3z M537.7,207.6c0,0,0-0.2,0-0.2c0.1-0.5,0-1-0.3-1.4
						c-0.5-0.6-1.3-0.7-1.7-1.1c-0.3-0.4-0.1-1.3-0.6-1.9c-0.3-0.4-0.8-0.6-1.3-0.6l-0.1,0c-1.5-0.1-2.8-0.4-4.2-1.1
						c0,0-0.1,0-0.1,0.1c0.1,0.2,0.4,0.4,0.8,0.7c1.5,0.7,3.5,1,3.5,1c0.9,0.1,1.2,0.9,1.4,1.5c0.1,0.2,0.1,0.4,0.3,0.6
						c0.1,0.1,0.3,0.3,0.5,0.4c0.6,0.3,1.4,0.9,1.2,1.7c0,0-0.4,2-0.1,3.5c0.1,0.5,0.3,0.8,0.4,1c0,0.1,0.1,0,0.1,0
						C537.3,210.4,537.4,209,537.7,207.6z M533.9,201.5c-0.2,0-0.6,0.1-0.9,0.2c0,0-0.1,0.1,0,0.1c0.3,0.1,1,0.3,1.3,0.2
						c0.4-0.1,0.3-0.7,0.1-0.9c-0.7-1.2-1.1-2.5-1.1-4c0-0.1,0-0.1-0.1,0c-0.1,0.3-0.2,0.6-0.2,1C533,199.3,533.3,200.5,533.9,201.5
						z M534.2,199.4c0.2,0.4,0.4,0.7,0.6,1.1c0.3-0.2,0.4-0.5,0.3-0.8c0,0,0-0.1-0.1-0.1c-0.7-1.2-1.1-2.5-1.3-3.8c0,0,0,0-0.1,0
						c-0.1,0.1-0.1,0.4-0.1,0.8C533.6,197,533.8,198.4,534.2,199.4z M535.6,199.2c0.5,0.7,0.1,1.5-0.4,2c-0.5,0.7,0,1.6,0,1.1
						c0-0.8,1-1.1,1.1-2c0.1-0.5,0-0.9-0.3-1.4l-0.1-0.1c-0.8-1.2-1.4-2.4-1.7-3.9c0,0-0.1-0.1-0.1,0c-0.1,0.2-0.1,0.6,0,1.1
						C534.5,197.5,535.6,199.2,535.6,199.2z M542.5,201.4c-0.2,0.2-0.3,0.8,0,1c0.2,0.1,1,0.1,1.3-0.1c0.1,0,0.1-0.1,0-0.1
						c-0.3-0.1-0.7-0.3-0.9-0.3c0.7-0.9,1.2-2.1,1.2-3.3c0-0.3-0.1-0.7-0.1-1c0-0.1,0-0.1-0.1,0C543.9,199,543.4,200.3,542.5,201.4z
						 M542,200c-0.2,0.3-0.1,0.6,0.2,0.8c0.3-0.3,0.5-0.7,0.7-1c0.5-0.9,0.9-2.3,0.9-2.7c0-0.4,0.1-0.7,0-0.8c0,0,0,0-0.1,0
						c-0.3,1.4-0.9,2.6-1.7,3.7L542,200z M541.6,202.6c-0.1,0.5,0.6-0.3,0.1-1.1c-0.4-0.6-0.7-1.4-0.2-2c0,0,1.2-1.6,1.7-3.1
						c0.2-0.5,0.1-0.9,0.1-1.1c0-0.1-0.1,0-0.1,0c-0.5,1.4-1.2,2.6-2.1,3.7c0,0-0.1,0.1-0.1,0.1c-0.3,0.4-0.5,0.9-0.4,1.3
						C540.7,201.3,541.7,201.8,541.6,202.6z M537.7,215.8c-5.3-0.3-9.4-5.7-9.1-12.1c0.3-6.4,4.9-11.4,10.2-11.2
						c5.3,0.3,9.4,5.7,9.1,12.1C547.6,211.1,543,216.1,537.7,215.8z M538.9,192.2c-5.5-0.3-10.2,4.9-10.6,11.5
						c-0.3,6.6,3.9,12.2,9.4,12.5c5.5,0.3,10.2-4.9,10.6-11.5C548.6,198.1,544.4,192.5,538.9,192.2z M536.4,204
						c-0.3,0-0.5-0.2-0.5-0.3c-0.2,0.6,0.2,0.9,0.6,1C536.4,204.5,536.4,204.3,536.4,204L536.4,204z M536.4,203.6c0-0.2,0-0.4,0-0.6
						c-0.4-0.1-0.7-0.4-0.7-0.5C535.5,202.9,535.7,203.5,536.4,203.6z M540.3,204.3c0,0.2-0.1,0.4-0.2,0.6c0.5-0.1,0.8-0.3,0.7-0.9
						C540.7,204,540.5,204.2,540.3,204.3L540.3,204.3z M541,202.8c-0.1,0.1-0.3,0.4-0.8,0.4c0,0.2,0,0.4,0,0.6
						C541,203.7,541.3,203.2,541,202.8z M538.9,201.6c1.4,0.9,1.9,0.2,1.9,0.2s0.5,0.6-0.4,0.8c-0.9,0.2-1.5-0.4-1.7-0.5
						C538.5,201.9,538.5,201.3,538.9,201.6z M539.7,200.9c0.5,0.4,0.7,0.4,0.7,0.4s0,0.6-0.8,0.2c-0.3-0.1-1.1-0.6-1-0.8
						C538.9,200.4,539.3,200.7,539.7,200.9z M537.9,201.6c-1.4,0.7-1.9,0-1.9,0s-0.6,0.6,0.3,0.9c0.9,0.3,1.6-0.2,1.7-0.3
						C538.4,201.9,538.5,201.3,537.9,201.6z M537.2,200.8c-0.5,0.3-0.7,0.3-0.7,0.3s0,0.6,0.8,0.3c0.3-0.1,1.2-0.5,1-0.7
						C538.1,200.3,537.7,200.6,537.2,200.8z M539.9,204c0-0.2,0-0.7,0-0.9c-0.7,0-1.3-0.6-1.5-0.9c-0.2,0.3-0.9,0.8-1.6,0.7
						c0,0.2-0.1,0.7-0.1,0.9c-0.1,0.4,0.1,0.9,0.3,1.2c0.1,0.2,0.3,0.3,0.5,0.5c0,0,0,0,0.1,0l0.1,0c0.1,0,0.1,0.1,0.1,0.1
						c0.1,0.1,0.4,0.1,0.4,0.1c0,0,0.2,0,0.4-0.1c0.1,0,0.1-0.1,0.1-0.1l0.1,0c0,0,0,0,0.1,0c0.2-0.1,0.4-0.2,0.6-0.4
						C539.8,204.9,540,204.4,539.9,204z M539.1,203.8c-0.4,0-0.4-0.1-0.4-0.1s0.1-0.3,0.5-0.3c0.4,0,0.5,0.3,0.5,0.3
						C539.6,203.7,539.6,203.8,539.1,203.8z M538.3,205.2c-0.3,0-0.6-0.3-0.6-0.4c0-0.1,1.1,0,1.1,0.1
						C538.9,204.9,538.6,205.2,538.3,205.2z M537.6,203.7c-0.5,0-0.5-0.1-0.5-0.2c0,0,0.1-0.3,0.5-0.2c0.4,0,0.4,0.3,0.4,0.3
						S537.9,203.7,537.6,203.7z M538.3,204.2c0.2,0,0.3,0.1,0.3,0.1s-0.1,0.1-0.3,0.1c-0.2,0-0.3-0.1-0.3-0.1
						C538,204.3,538.2,204.2,538.3,204.2z M543.6,204.8c1.1-0.2,2.4-0.7,2.8-1c0.4-0.2,0.6-0.4,0.7-0.5c0,0,0-0.1,0,0
						c-1.3,0.6-2.6,0.9-4,1c0,0-0.1,0-0.1,0c-0.3,0-0.6,0.3-0.5,0.7C542.7,204.9,543.1,204.8,543.6,204.8z M540.3,210.4
						C540.2,210.5,540.3,210.5,540.3,210.4c0.3-0.2,0.5-0.5,0.7-0.7c0.5-0.9,0.8-1.9,0.9-2.8c0-0.2,0-0.4,0-0.6c0,0,0-0.1,0-0.1
						c0,0,0,0,0.1,0c0.2,0,0.4,0,0.6-0.1c1-0.1,2-0.5,2.8-1.1c0.3-0.2,0.5-0.5,0.7-0.7c0-0.1,0-0.1,0,0c-1.3,0.8-2.6,1.2-4,1.2
						c-0.2,0-0.4,0.1-0.5,0.2c-0.1,0.1-0.2,0.2-0.2,0.3c-0.1,0.1-0.1,0.3-0.1,0.4C541.3,207.8,541,209.1,540.3,210.4z M539.3,211.4
						C539.2,211.4,539.3,211.5,539.3,211.4c0.2-0.1,0.3-0.3,0.5-0.7c0.2-0.4,0.7-1.7,0.8-2.8c0-0.4,0-0.8,0-1.2h0
						c-0.3,0-0.6,0.3-0.6,0.6c0,0,0,0.1,0,0.1C540,208.8,539.8,210.1,539.3,211.4z M538.4,211.9C538.4,211.9,538.4,212,538.4,211.9
						c0.2-0.1,0.4-0.4,0.6-0.9c0.4-1.5,0.3-3.5,0.3-3.5c-0.1-0.8,0.7-1.3,1.4-1.6c0.2-0.1,0.4-0.2,0.5-0.4c0.1-0.1,0.2-0.3,0.3-0.6
						c0.2-0.7,0.6-1.4,1.5-1.4c0,0,2,0,3.6-0.6c0.5-0.2,0.8-0.4,0.9-0.6c0-0.1,0-0.1-0.1-0.1c-1.4,0.5-2.8,0.7-4.3,0.7l-0.1,0
						c-0.5,0-1,0.2-1.3,0.5c-0.5,0.5-0.5,1.5-0.8,1.8c-0.4,0.4-1.2,0.4-1.8,0.9c-0.3,0.3-0.5,0.8-0.5,1.3c0,0,0,0.2,0,0.2
						C538.8,209.1,538.8,210.5,538.4,211.9z M544.4,211.4C544.4,211.4,544.3,211.4,544.4,211.4c-0.1,0-0.2,0-0.2,0
						c-0.2,0-0.5-0.1-0.7-0.1c0.1-0.1,0.1-0.4-0.1-0.6c-0.2-0.2-0.5-0.1-0.6,0.1c-0.1,0.1-0.1,0.2-0.2,0.2c0,0-0.1,0.1-0.2,0.2
						c0,0-0.1,0-0.1,0.1c0,0,0,0.1,0,0.1c0,0,0.1,0,0.1,0c0.1-0.1,0.1-0.1,0.2,0l1.1,1.1l0.2-0.2l-0.5-0.5l0,0c0,0,0-0.1,0.1-0.1
						l0.6,0.1c0.2,0,0.3,0.1,0.5-0.1C544.3,211.5,544.4,211.4,544.4,211.4z M543.1,210.9c0.1,0.1,0.3,0.3,0,0.6c0,0,0,0-0.1,0.1
						l-0.5-0.5c0,0,0,0,0-0.1l0.1-0.1C542.9,210.7,543,210.8,543.1,210.9z M530,207.6c0-0.1-0.1-0.3,0-0.5l0.2,0
						c-0.1,0.2-0.1,0.4,0,0.5c0.1,0.2,0.2,0.3,0.4,0.3c0.1,0,0.1-0.1,0.2-0.2c0-0.2,0.1-0.4,0.1-0.5c0.1-0.1,0.1-0.2,0.3-0.3
						c0.3-0.1,0.5,0.1,0.6,0.4c0,0.1,0,0.2,0.1,0.4c-0.1,0-0.2,0.1-0.3,0.1c0,0-0.1,0-0.1,0c0,0,0-0.1,0.1-0.1c0,0,0.1-0.1,0-0.3
						c-0.1-0.2-0.2-0.3-0.4-0.3c-0.1,0-0.2,0.3-0.2,0.4c0,0.1,0,0.3-0.1,0.4c-0.1,0.1-0.2,0.2-0.3,0.2
						C530.4,208.1,530.1,207.9,530,207.6z M532.4,209.2C532.4,209.2,532.4,209.2,532.4,209.2l-0.1-0.1l-0.2-0.5l-1.4,0.6l-0.1-0.3
						l1.4-0.6c-0.1-0.1-0.2-0.4-0.2-0.4c-0.1-0.1-0.1-0.1-0.2-0.1c0,0-0.1,0-0.1,0c0-0.1,0-0.1,0-0.1c0.1,0,0.1-0.1,0.2-0.1
						c0.1,0,0.1,0,0.1,0.1c0,0.1,0.1,0.1,0.1,0.2c0.1,0.3,0.3,0.6,0.4,0.9c0,0.1,0.1,0.1,0.1,0.2
						C532.5,209.1,532.5,209.1,532.4,209.2C532.5,209.2,532.5,209.2,532.4,209.2C532.4,209.2,532.4,209.2,532.4,209.2z M533.4,210.8
						c0,0-0.1,0-0.1,0l-1.6,0.4l-0.1-0.1c0.4-0.6,0.6-1,0.9-1.4c0,0,0-0.1,0-0.1c0-0.1,0-0.1,0-0.1c0,0,0.1,0,0.1,0
						c0,0.1,0.1,0.2,0.1,0.2c0,0.1,0,0.1,0,0.2l-0.8,1.2l1.3-0.3c0.1,0-0.1-0.2,0-0.2c0,0,0.1,0,0.1,0c0,0.1,0.1,0.1,0.1,0.2
						c0,0,0.1,0.1,0.1,0.1c0,0,0,0.1,0,0.1C533.5,210.9,533.5,210.9,533.4,210.8z M534.4,212.7c0.3-0.4,0.2-0.9-0.2-1.3
						c-0.1-0.1-0.2-0.1-0.2-0.2c0,0-0.1-0.1-0.1-0.1c0,0-0.1-0.1-0.1-0.1c0,0,0-0.1-0.1-0.1c0,0-0.1,0-0.1,0c0,0,0,0.1,0,0.1
						c0.1,0.1,0.1,0.1,0,0.2l-1,1.2c0.1,0.1,0.2,0.2,0.3,0.3c0,0.1,0.1,0.1,0.1,0.1C533.5,213.2,534,213.2,534.4,212.7z
						 M534.1,212.6c-0.3,0.3-0.6,0.5-1,0.2c-0.1-0.1-0.2-0.1-0.2-0.2c0,0,0,0,0-0.1l0.9-1c0,0,0.1,0,0.1,0l0.2,0.1
						C534.5,211.9,534.4,212.3,534.1,212.6z M535.4,212.5C535.3,212.5,535.3,212.5,535.4,212.5l-0.8,1.4l-0.3-0.1l0.7-1.3
						c0-0.1,0-0.1,0-0.1c0,0-0.1,0-0.1-0.1c0,0,0.1,0,0.1,0c0.1,0,0.2,0.1,0.2,0.1c0,0,0.1,0.1,0.2,0.1c0,0,0.1,0.1,0,0.1
						C535.5,212.5,535.5,212.5,535.4,212.5z M537.3,213.1c0,0-0.1,0-0.1,0.1l-1,1.3l-0.2,0c-0.1-0.7-0.1-1.1-0.2-1.7
						c0,0,0-0.1,0-0.1c-0.1,0-0.1-0.1-0.1-0.1c0,0,0-0.1,0.1,0c0.1,0,0.2,0.1,0.2,0.1c0.1,0,0.1,0.1,0.1,0.2l0.1,1.4l0.8-1.1
						c0.1-0.1-0.2-0.1-0.1-0.2c0,0,0,0,0.1,0c0.1,0,0.3,0.1,0.4,0.1c0.1,0,0.1,0,0.1,0.1C537.4,213.1,537.4,213.1,537.3,213.1z
						 M539.6,212.9c-0.1,0-0.1,0.1-0.1,0.2c0,0.2,0.3,1.4,0.3,1.4l-0.3,0.1l-0.3-1.3l-0.4,1.3l-0.1,0l-0.7-1.2l0,1.3l-0.3,0.1l0-1.5
						c0-0.1,0-0.2-0.1-0.2c-0.1,0-0.1,0-0.1-0.1c0-0.1,0-0.1,0.1-0.1c0.1,0,0.3,0,0.3,0c0.1,0,0.1,0,0.1,0.1l0.7,1.2l0.4-1.4
						c0-0.1,0.1-0.1,0.1-0.1c0.1,0,0.2-0.1,0.3-0.1C539.6,212.7,539.7,212.7,539.6,212.9C539.7,212.8,539.7,212.9,539.6,212.9z
						 M542.1,211.5c0,0.1,0,0.1,0,0.2l0.3,1.6l-0.2,0.1c-0.5-0.4-0.9-0.6-1.3-1c0,0,0,0-0.1,0c-0.1,0-0.1,0-0.1,0c0,0,0-0.1,0-0.1
						c0.1,0,0.2-0.1,0.2-0.1c0.1,0,0.1,0,0.2,0l1.1,0.8l-0.2-1.3c0-0.1-0.2,0.1-0.2,0c0,0,0-0.1,0-0.1c0.1-0.1,0.2-0.2,0.3-0.3
						c0,0,0.1,0,0.1,0C542.2,211.4,542.2,211.5,542.1,211.5z M545,209.7c-0.2-0.2-0.4-0.1-0.6,0.1c0-0.2,0-0.3-0.2-0.4
						c-0.2-0.1-0.4,0-0.6,0.2c-0.1,0.1-0.1,0.2-0.2,0.2c0,0.1-0.1,0.1-0.1,0.2c0,0-0.1,0.1-0.1,0.1c0,0,0,0.1,0,0.1c0,0,0,0,0.1-0.1
						c0.1-0.1,0.1-0.1,0.1,0l0.1,0l1.2,0.8c0,0,0.1-0.2,0.1-0.2c0.1-0.1,0.1-0.1,0.2-0.2C545.2,210.3,545.2,209.9,545,209.7z
						 M544,209.7c0.1,0.1,0.2,0.2,0.1,0.4l-0.1,0.1l-0.5-0.3c0,0,0,0,0-0.1l0,0C543.7,209.6,543.9,209.5,544,209.7z M544.8,210
						c0.2,0.1,0.2,0.3,0.1,0.5c0,0.1-0.1,0.1-0.2,0.2c0,0,0,0,0,0l-0.6-0.4l0-0.1C544.4,209.9,544.6,209.9,544.8,210z M544.3,208.5
						C544.3,208.6,544.3,208.6,544.3,208.5l1.4,0.8l-0.1,0.3l-1.3-0.7c-0.1,0-0.1,0-0.1,0c0,0,0,0.1-0.1,0.1c0,0,0-0.1,0-0.1
						c0-0.1,0.1-0.2,0.1-0.2c0-0.1,0.1-0.1,0.1-0.2c0-0.1,0.1-0.1,0.1,0C544.3,208.4,544.3,208.4,544.3,208.5z M546.1,208.3
						c0,0.1-0.1,0.3-0.3,0.4l-0.1-0.1c0.1-0.1,0.3-0.2,0.3-0.3c0.1-0.2,0-0.4-0.1-0.5c-0.1,0-0.2,0-0.3,0.1
						c-0.1,0.1-0.2,0.3-0.4,0.3c-0.1,0.1-0.3,0.1-0.4,0c-0.2-0.1-0.3-0.4-0.2-0.7c0-0.1,0.1-0.2,0.2-0.4c0.1,0,0.2,0.1,0.3,0.1
						c0,0,0.1,0,0.1,0.1c0,0,0,0.1-0.2,0c-0.1,0-0.1,0-0.2,0.2c-0.1,0.2,0,0.4,0.1,0.4c0.1,0,0.3-0.2,0.4-0.2
						c0.1-0.1,0.2-0.2,0.3-0.2c0.1-0.1,0.2-0.1,0.4,0C546.2,207.7,546.2,208,546.1,208.3z"/>
					<g>
						<g>
							
								<rect x="531.7" y="235.6" transform="matrix(0.9993 3.869810e-02 -3.869810e-02 0.9993 9.6163 -21.9521)" fill="#B7BFC7" width="80.3" height="3.6"/>
						</g>
						<g>
							
								<rect x="531.5" y="241.6" transform="matrix(0.9993 3.869810e-02 -3.869810e-02 0.9993 9.8466 -21.9388)" fill="#DCE4E8" width="80.3" height="3.6"/>
						</g>
						<g>
							
								<rect x="531.2" y="247.7" transform="matrix(0.9993 3.869810e-02 -3.869810e-02 0.9993 10.0819 -21.9251)" fill="#DCE4E8" width="80.3" height="3.6"/>
						</g>
						<g>
							
								<rect x="531" y="253.7" transform="matrix(0.9993 3.869810e-02 -3.869810e-02 0.9993 10.3145 -21.9114)" fill="#DCE4E8" width="80.3" height="3.6"/>
						</g>
					</g>
					<g>
						<g>
							
								<rect x="530.1" y="265" transform="matrix(0.9993 3.869810e-02 -3.869810e-02 0.9993 10.7539 -21.8774)" fill="#DCE4E8" width="80.7" height="3.6"/>
						</g>
						<g>
							
								<rect x="529.9" y="271.1" transform="matrix(0.9993 3.869810e-02 -3.869810e-02 0.9993 10.9892 -21.8642)" fill="#DCE4E8" width="80.7" height="3.6"/>
						</g>
						<g>
							
								<rect x="529.7" y="277.1" transform="matrix(0.9993 3.869810e-02 -3.869810e-02 0.9993 11.222 -21.8501)" fill="#DCE4E8" width="80.7" height="3.6"/>
						</g>
					</g>
				</g>
				<g id="wind">
					<g>
						
							<rect x="518.4" y="231.8" transform="matrix(-0.9986 5.369770e-02 -5.369770e-02 -0.9986 1163.8428 587.8218)" fill="#BE3D2F" width="111.2" height="155.5"/>
						
							<rect x="519.3" y="230.7" transform="matrix(-0.9986 5.369770e-02 -5.369770e-02 -0.9986 1165.5166 585.5847)" fill="#FFFFFF" width="111.2" height="155.5"/>
					</g>
					<g>
						<path fill="#515F84" d="M575.3,254.6c6.4,1.1,11.5-2.8,15.3-7.5c0.9-1.1,3-3.2,2.3-4.8c-6.2,2.5-8.6,11.5-16.9,10.2
							c-3.4-0.6-4.9-2.2-8.3,0c-2.6,1.7-2.8,2.2-5.2-0.1c-1-1-2.6-4-4-4.4c-2.6-0.7,0.3,3.3,1,4.4c2.6,3.8,4.5,5.1,8.4,2.7
							C571.2,253.1,571.6,254,575.3,254.6z"/>
							<text x="525" y="270" style="font-weight:bold;font-size:small;fill:red">Always Learning</text>
					</g>
					<g>
						<g>
							<g>
								
									<rect x="580.2" y="287.5" transform="matrix(0.9986 -5.349828e-02 5.349828e-02 0.9986 -14.6284 32.4311)" fill="#B7BFC7" width="36.4" height="3.8"/>
							</g>
							<path fill="#DCE4E8" d="M617.1,296.8l-36.4,1.9l-0.2-3.8l36.4-1.9L617.1,296.8z M617.3,299.3l-36.4,2l0.2,3.8l36.4-2
								L617.3,299.3z M617.6,305.7l-36.4,1.9l0.2,3.8l36.4-1.9L617.6,305.7z"/>
						</g>
						<g>
							<g>
								
									<rect x="532.7" y="320.1" transform="matrix(0.9986 -5.349828e-02 5.349828e-02 0.9986 -16.4045 31.2535)" fill="#DCE4E8" width="85.7" height="3.8"/>
							</g>
							<g>
								
									<rect x="533.1" y="326.5" transform="matrix(0.9986 -5.349828e-02 5.349828e-02 0.9986 -16.7455 31.2809)" fill="#DCE4E8" width="85.7" height="3.8"/>
							</g>
							<g>
								
									<rect x="533.4" y="332.9" transform="matrix(0.9986 -5.349828e-02 5.349828e-02 0.9986 -17.0866 31.3079)" fill="#DCE4E8" width="85.7" height="3.8"/>
							</g>
						</g>
						<g>
							<g>
								
									<rect x="535.4" y="369.9" transform="matrix(0.9986 -5.349828e-02 5.349828e-02 0.9986 -19.064 31.4671)" fill="#DCE4E8" width="85.7" height="3.8"/>
							</g>
							<g>
								
									<rect x="535.8" y="376.8" transform="matrix(0.9986 -5.349828e-02 5.349828e-02 0.9986 -19.4462 30.9828)" fill="#DCE4E8" width="66.5" height="3.8"/>
							</g>
						</g>
						<g>
							
								<rect x="534.1" y="345.8" transform="matrix(0.9986 -5.349828e-02 5.349828e-02 0.9986 -17.7959 30.5938)" fill="#B7BFC7" width="56.9" height="3.8"/>
						</g>
						<path fill="#DCE4E8" d="M591.4,354.5l-56.8,3l-0.2-3.8l56.8-3L591.4,354.5z M591.5,357l-56.8,3l0.2,3.8l56.8-3L591.5,357z"/>
						<g>
							<path fill="#DCE4E8" d="M536.7,313.9l-4.5,0.2l-1.2-23l4.5-0.2L536.7,313.9z M541.9,290.6l-4.5,0.2l1.2,23l4.5-0.2
								L541.9,290.6z M548.3,290.2l-4.5,0.2l1.2,23l4.5-0.2L548.3,290.2z M554.7,289.9l-4.5,0.2l1.2,23l4.5-0.2L554.7,289.9z
								 M561,289.5l-4.5,0.2l1.2,23l4.5-0.2L561,289.5z M567.4,289.2l-4.5,0.2l1.2,23l4.5-0.2L567.4,289.2z M573.8,288.9l-4.5,0.2
								l1.2,23l4.5-0.2L573.8,288.9z"/>
							<path fill="#62C3ED" d="M536.7,313.9l-4.5,0.2l-0.5-10.2l4.5-0.2L536.7,313.9z M542.5,301.4l-4.5,0.2l0.7,12.1l4.5-0.2
								L542.5,301.4z M549.1,305.5l-4.5,0.2l0.4,7.7l4.5-0.2L549.1,305.5z M555.1,298.8l-4.5,0.2l0.8,14l4.5-0.2L555.1,298.8z
								 M561.4,295.9l-4.5,0.2l0.9,16.6l4.5-0.2L561.4,295.9z M568.5,308.3l-4.5,0.2l0.2,3.8l4.5-0.2L568.5,308.3z M574.5,301.6
								l-4.5,0.2l0.5,10.2l4.5-0.2L574.5,301.6z"/>
						</g>
					</g>
				</g>
			</g>
			<path id="wire5" fill="none" stroke="#DBDBDB" stroke-miterlimit="10" enable-background="new    " d="M1582.5-614.8
				c-18.5,62-198.3,159.1-173.5,246.8c4.3,15.1,5.8,29.9,24.6,44.1c8.3,6.3,109.8,50.3,48.2,54.4c-44.3,2.9-91.1-10.1-134.4-17.9
				c-20.4-3.6-220.9-43.3-181.2,28c22,39.6,210.5,106.9,200.9,145.1"/>
		</g>
		<g id="titles">
			<g id="title3">
				<text transform="matrix(1 0 0 1 853.0562 60.1387)" fill="#F5F7FA" font-family="'Roboto-Thin'" font-size="48px">as a physics enthusiast</text>
			</g>
			<g id="title2">
				<g>
					<text transform="matrix(1 0 0 1 917.7407 60.1387)" fill="#F5F7FA" font-family="'Roboto-Thin'" font-size="48px">as an employee</text>
				</g>
			</g>
			<g id="title1">
				<g>
					<text transform="matrix(1 0 0 1 922.5957 60.1387)" fill="#F5F7FA" font-family="'Roboto-Thin'" font-size="48px">on hobby projects</text>
				</g>
			</g>
		</g>
	</g>
	<text id="title" transform="matrix(1 0 0 1 533.3481 -307.748)" fill="#F5F7FA" font-family="'Roboto-Thin'" font-size="36px">Over the years I worked for clients and companies</text>
</g>
</svg>
